<?xml version="1.0" encoding="UTF-8" standalone="no"?>
<!-- Created with Inkscape (http://www.inkscape.org/) -->

<svg
   width="210mm"
   height="297mm"
   viewBox="0 0 210 297"
   version="1.1"
   id="svg1"
   xml:space="preserve"
   inkscape:version="1.4.2 (f4327f4, 2025-05-13)"
   sodipodi:docname="finishedart.svg"
   xmlns:inkscape="http://www.inkscape.org/namespaces/inkscape"
   xmlns:sodipodi="http://sodipodi.sourceforge.net/DTD/sodipodi-0.dtd"
   xmlns="http://www.w3.org/2000/svg"
   xmlns:svg="http://www.w3.org/2000/svg"><sodipodi:namedview
     id="namedview1"
     pagecolor="#ffffff"
     bordercolor="#000000"
     borderopacity="0.25"
     inkscape:showpageshadow="2"
     inkscape:pageopacity="0.0"
     inkscape:pagecheckerboard="0"
     inkscape:deskcolor="#d1d1d1"
     inkscape:document-units="mm"
     inkscape:zoom="1.0167041"
     inkscape:cx="391.95279"
     inkscape:cy="510.9648"
     inkscape:window-width="1920"
     inkscape:window-height="1009"
     inkscape:window-x="-8"
     inkscape:window-y="-8"
     inkscape:window-maximized="1"
     inkscape:current-layer="layer1" /><defs
     id="defs1" /><g
     inkscape:label="Layer 1"
     inkscape:groupmode="layer"
     id="layer1"><path
       style="fill:#000000;stroke-width:0.686091"
       d="m 77.862064,191.3896 c -3.12e-4,-0.0749 0.294567,-1.78972 0.655287,-3.81075 0.360721,-2.02103 0.6143,-3.78289 0.563512,-3.91524 -0.05079,-0.13236 -0.549888,-0.34304 -1.109107,-0.46819 -0.671733,-0.15032 -1.016764,-0.31831 -1.016764,-0.49504 0,-0.2074 0.142749,-0.24072 0.635349,-0.1483 l 0.635349,0.11919 v -1.18606 -1.18606 l -0.635349,-0.20968 c -0.349481,-0.11534 -0.635349,-0.33185 -0.635349,-0.48121 0,-0.32831 -0.241331,-0.3892 3.585182,0.90472 l 3.131361,1.05887 -1.69e-4,0.66565 c -9.2e-5,0.36611 -0.326843,2.56596 -0.726112,4.88855 -0.39927,2.32258 -0.725944,4.26266 -0.725944,4.31129 0,0.0486 -0.126234,0.0884 -0.280518,0.0884 -0.224178,0 -0.255696,-0.13231 -0.156929,-0.65878 0.06797,-0.36234 0.141942,-0.91373 0.164374,-1.22532 0.02244,-0.31159 0.08785,-0.68906 0.145377,-0.83882 0.253005,-0.65866 1.144646,-6.73975 1.001215,-6.8284 -0.08761,-0.0541 -1.096028,-0.41315 -2.240925,-0.79778 l -2.08163,-0.69934 v 1.17204 c 0,1.08315 0.03442,1.18513 0.453821,1.34458 0.530995,0.20188 0.541314,0.3448 0.190057,2.63216 -0.177131,1.15346 -0.194067,1.68712 -0.05761,1.81528 0.134488,0.12631 0.157402,0.0711 0.07533,-0.18153 -0.08085,-0.24888 0.0069,-0.19812 0.279129,0.16143 0.21839,0.28846 0.765561,0.75816 1.215936,1.04378 0.450374,0.28562 0.70076,0.52056 0.556412,0.52209 -0.222325,0.002 -0.22082,0.0297 0.0098,0.17875 0.149761,0.0968 0.190605,0.17596 0.09076,0.17596 -0.300685,0 -0.726112,-0.32966 -0.726112,-0.56265 0,-0.12012 -0.113481,-0.25624 -0.252179,-0.30246 -0.171686,-0.0572 -0.20663,-0.004 -0.109475,0.16639 0.07849,0.13776 -0.194551,-0.071 -0.606748,-0.46386 -0.412199,-0.39287 -0.77972,-0.67877 -0.816714,-0.63534 -0.03699,0.0434 -0.215069,0.95711 -0.395722,2.03039 -0.226432,1.34527 -0.40393,1.95143 -0.571419,1.95143 -0.133627,0 -0.243214,-0.0613 -0.243527,-0.13614 z m 2.541963,-3.00895 c 0,-0.0325 -0.22464,-0.25717 -0.499202,-0.49921 l -0.499202,-0.44008 0.440081,0.4992 c 0.411322,0.46658 0.558323,0.58245 0.558323,0.44009 z m -1.864331,-7.33411 c -0.0393,-0.37663 -0.07211,-0.11296 -0.07291,0.58592 -8.23e-4,0.69888 0.03135,1.00703 0.07145,0.68478 0.0401,-0.32225 0.04076,-0.89407 0.0014,-1.2707 z m 6.670168,9.98 c 0.776424,-3.08933 2.273762,-10.03839 2.273762,-10.5524 v -0.66249 l -3.766709,-1.13704 c -6.853365,-2.06881 -6.151868,-1.78754 -6.475518,-2.59642 -0.157524,-0.39369 -0.280354,-0.97963 -0.272957,-1.30209 0.01249,-0.54442 0.05463,-0.50201 0.589966,0.59364 l 0.576517,1.17993 0.04973,-3.26214 0.04974,-3.26214 -0.639701,-1.48908 c -0.372472,-0.86702 -0.637023,-1.77925 -0.633292,-2.1837 0.0055,-0.59793 0.176714,-0.29727 1.229811,2.15986 0.672871,1.56996 1.304497,2.93558 1.403613,3.0347 0.09912,0.0991 1.926105,0.79552 4.059975,1.54756 l 3.879763,1.36736 h 2.243635 2.243634 v -0.95536 -0.95538 l -5.218935,-1.72687 -5.218935,-1.72688 -2.264472,-4.47762 c -1.245459,-2.46269 -2.21789,-4.5242 -2.160958,-4.58113 0.05693,-0.057 3.084301,0.0748 6.727489,0.29266 3.643186,0.21788 6.748306,0.34845 6.900265,0.29014 0.151959,-0.0583 0.787019,-0.97981 1.411245,-2.04777 0.993832,-1.70031 1.110384,-1.99568 0.937341,-2.37547 -0.17574,-0.3857 -0.315796,-0.43372 -1.265212,-0.43372 h -1.067597 l -0.615431,1.04379 c -0.592133,1.00428 -0.646354,1.04561 -1.432308,1.09197 -0.449281,0.0265 -3.104131,-0.18817 -5.899665,-0.47706 -4.50717,-0.46576 -5.130676,-0.49537 -5.505638,-0.26147 -0.399824,0.24942 -0.419594,0.2408 -0.363057,-0.15828 0.04647,-0.32802 0.191254,-0.43475 0.64976,-0.47895 l 0.589967,-0.0569 v -1.98531 c 0,-1.95061 -0.0073,-1.98531 -0.417515,-1.98531 -0.229633,0 -0.522458,0.10211 -0.65072,0.22691 -0.188494,0.18341 -0.221557,0.1399 -0.172452,-0.22691 0.04486,-0.33515 0.185341,-0.46826 0.537204,-0.50906 0.262048,-0.0304 2.151525,0.39847 4.198837,0.95302 2.047313,0.55454 3.878726,1.00827 4.069806,1.00827 0.279533,0 0.568851,-0.55866 1.480647,-2.85907 l 1.133228,-2.85907 -0.05211,-2.42002 -0.05211,-2.42002 -1.66021,3.50919 -1.660211,3.50919 -0.662366,-0.0409 c -0.364302,-0.0225 -2.055901,-0.48638 -3.75911,-1.03086 -1.703208,-0.54448 -3.210789,-0.9462 -3.350178,-0.89271 -0.169957,0.0653 -0.253436,-0.0354 -0.253436,-0.30543 0,-0.36188 0.06436,-0.3906 0.635349,-0.28348 l 0.635349,0.11919 v -3.44904 -3.44903 l -0.635349,-0.1192 c -0.363886,-0.0683 -0.635349,-0.22689 -0.635349,-0.37127 0,-0.31571 -0.09327,-0.32047 2.178338,0.11124 2.689368,0.5111 2.722923,0.52122 2.722923,0.82178 0,0.14881 -0.367594,0.95042 -0.816877,1.78136 -0.449282,0.83094 -0.816877,1.55833 -0.816877,1.61641 0,0.12727 2.366722,1.46709 2.435411,1.37871 0.02648,-0.034 0.603575,-1.12387 1.282448,-2.4218 0.678873,-1.29792 1.506664,-2.85408 1.839534,-3.45812 l 0.60522,-1.09826 -4.71506,-0.89034 c -3.545253,-0.66945 -4.71506,-0.95457 -4.71506,-1.14922 0,-0.19447 0.158056,-0.23322 0.635349,-0.15576 l 0.635349,0.1031 v -1.60292 c 0,-1.68538 -0.06978,-1.82329 -0.922488,-1.82329 -0.191516,0 -0.34821,-0.12253 -0.34821,-0.27229 0,-0.14976 0.07419,-0.27229 0.164862,-0.27229 0.09067,0 2.418206,0.40843 5.172295,0.90763 2.754089,0.49921 5.253064,0.90765 5.553277,0.90765 h 0.545842 v -1.444 -1.444 l -0.598959,-0.11237 c -0.329428,-0.0618 -2.876704,-0.49839 -5.660614,-0.9702 -3.420251,-0.57966 -5.087647,-0.93582 -5.141807,-1.0983 -0.05957,-0.17871 0.0888,-0.22073 0.577825,-0.16364 l 0.657977,0.0768 -0.0089,-2.45956 -0.0089,-2.45956 -0.620024,1.45222 c -0.588821,1.37914 -0.620345,1.41745 -0.626401,0.76122 -0.0036,-0.38943 0.270911,-1.36087 0.628971,-2.22585 0.349442,-0.84416 0.635349,-1.61689 0.635349,-1.71717 0,-0.10029 -0.285907,-0.31869 -0.635349,-0.48532 -0.349442,-0.16664 -0.635349,-0.4199 -0.635349,-0.56282 0,-0.25492 0.235775,-0.24166 0.953024,0.0536 0.282198,0.11617 0.317674,0.007 0.317674,-0.98075 0,-1.09159 -0.0114,-1.11696 -0.635349,-1.4145 -0.375864,-0.17924 -0.635349,-0.43539 -0.635349,-0.62719 0,-0.27206 0.313942,-0.17034 1.951428,0.63226 1.073286,0.52607 2.298601,1.09487 2.722923,1.26401 0.498136,0.19856 0.771495,0.42051 0.771495,0.6264 0,0.17538 -0.335909,1.32685 -0.746464,2.55882 -0.410556,1.23197 -0.67604,2.30543 -0.589967,2.38546 0.08607,0.08 0.781387,0.2016 1.545142,0.27013 l 1.388644,0.12459 0.357664,-0.96681 c 0.718955,-1.9434 1.930212,-5.76435 1.849392,-5.83396 -0.04569,-0.0394 -2.145698,-1.11601 -4.66667,-2.39257 -3.64147,-1.84395 -4.583587,-2.39414 -4.583587,-2.67674 0,-0.34964 0.01087,-0.34931 0.635349,0.0191 l 0.635349,0.37486 v -2.45377 -2.45377 l -0.635349,-0.26546 c -0.643384,-0.26883 -0.946621,-0.96077 -0.317674,-0.72488 2.850991,1.06924 3.093515,1.21081 3.738642,2.18244 0.610707,0.9198 0.807286,1.04927 5.003313,3.29557 l 4.36763,2.33816 5.26e-4,0.63535 c 2.89e-4,0.34945 -0.28399,1.69729 -0.631731,2.99522 -0.347742,1.29792 -0.632575,2.46197 -0.632962,2.58677 -4.97e-4,0.16005 0.374789,0.22691 1.273546,0.22691 h 1.274251 l 0.767942,-1.67865 c 0.422367,-0.92326 1.312115,-2.82036 1.977218,-4.21578 l 1.209279,-2.53714 -5.714661,-2.29289 c -3.143063,-1.26109 -5.848944,-2.42717 -6.013068,-2.59129 -0.276858,-0.27686 -0.256458,-0.42624 0.282488,-2.06854 l 0.580897,-1.77012 5.493591,-5.46469 5.49359,-5.4647 5.808903,-1.502542 c 3.19489,-0.826398 5.93143,-1.565649 6.08119,-1.64278 0.14976,-0.07713 0.63989,-1.138323 1.08917,-2.358203 0.72548,-1.969813 1.09428,-2.592178 1.37168,-2.314783 0.0469,0.04692 -0.0383,0.381144 -0.18936,0.742708 -0.15107,0.361564 -0.27468,0.69616 -0.27468,0.743547 0,0.04739 0.34718,0.117426 0.77149,0.155644 l 0.7715,0.06949 -0.90764,0.06023 -0.90764,0.06023 0.90764,0.124491 0.90764,0.12449 -0.90926,0.02852 -0.90926,0.02852 -0.42323,1.18009 c -0.23278,0.64905 -0.5588,1.343096 -0.72449,1.542327 -0.22553,0.271171 -1.82399,0.759524 -6.35834,1.942562 l -6.057086,1.580327 -5.274659,5.389522 -5.274659,5.38952 -0.524096,1.42489 c -0.517077,1.40581 -0.519341,1.42875 -0.168997,1.71244 0.195306,0.15815 2.862501,1.29452 5.927102,2.52528 3.064601,1.23075 5.60908,2.33436 5.654399,2.45246 0.04532,0.1181 -0.705083,1.88236 -1.667562,3.92058 -0.962478,2.03821 -1.873489,4.01217 -2.024467,4.38657 l -0.274507,0.68073 h -1.795572 c -2.164768,0 -2.076389,0.28925 -1.08159,-3.5398 0.389084,-1.4976 0.653094,-2.7747 0.586688,-2.83799 -0.06641,-0.0632 -2.024114,-1.13762 -4.350466,-2.38741 -3.993361,-2.14536 -4.267256,-2.32591 -4.90126,-3.23091 -0.401235,-0.57274 -0.908999,-1.05506 -1.261498,-1.19829 l -0.589967,-0.23972 v 2.49983 2.49983 l 3.99362,1.99021 c 3.246513,1.61789 3.99362,2.05943 3.99362,2.36019 0,0.20349 -0.518921,1.92042 -1.153157,3.81539 l -1.153157,3.44541 -0.798271,-0.0139 c -0.439049,-0.008 -1.349663,-0.0754 -2.023586,-0.15059 -1.173276,-0.13084 -1.225249,-0.15723 -1.223757,-0.62139 8.24e-4,-0.26662 0.327608,-1.40817 0.726113,-2.53677 0.398505,-1.12861 0.724554,-2.11791 0.724554,-2.19846 0,-0.12767 -2.728238,-1.46767 -2.988171,-1.46767 -0.0538,0 -0.09781,2.11838 -0.09781,4.7075 0,4.32787 0.02562,4.71479 0.317674,4.79793 0.174722,0.0497 2.42376,0.43625 4.997864,0.85892 l 4.68019,0.76851 -0.05122,1.9216 -0.05122,1.92161 -0.635348,0.0502 c -0.349442,0.0276 -2.575431,-0.30539 -4.946643,-0.73997 l -4.311295,-0.79015 v 1.65737 1.65738 l 3.76671,0.69729 c 3.964803,0.73398 4.458769,0.8788 4.367628,1.28048 -0.03098,0.13655 -0.914054,1.88469 -1.962379,3.88477 -1.435064,2.73792 -1.990235,3.63794 -2.246755,3.64233 -0.187389,0.003 -0.943001,-0.32664 -1.679135,-0.73299 -1.0034,-0.55389 -1.338427,-0.83415 -1.338427,-1.11964 0,-0.20944 0.362472,-1.05118 0.805495,-1.87055 l 0.805495,-1.48975 -1.017299,-0.20431 c -0.559515,-0.11237 -1.12797,-0.2043 -1.263235,-0.2043 -0.200073,0 -0.236743,0.65033 -0.196635,3.48727 l 0.0493,3.48727 2.711696,0.87572 c 1.491432,0.48165 2.798435,0.84086 2.904451,0.79824 0.106015,-0.0426 1.003226,-1.80175 1.993802,-3.90917 1.015805,-2.16111 1.906184,-3.83169 2.042192,-3.83169 0.191849,0 0.241145,0.68895 0.241145,3.37018 v 3.37016 l -1.116994,2.80179 c -1.104998,2.7717 -1.123033,2.80178 -1.679136,2.80108 -0.451835,-5.7e-4 -5.049447,-1.16031 -6.790372,-1.71286 -0.391825,-0.12436 -0.397548,-0.0987 -0.397548,1.78098 v 1.90715 l 0.771495,0.104 c 0.424322,0.0572 2.446092,0.26501 4.492823,0.46179 2.04673,0.19678 4.023815,0.4004 4.393522,0.45249 0.657342,0.0926 0.685669,0.0716 1.281939,-0.94987 l 0.609744,-1.04456 1.506134,-0.053 c 1.274448,-0.0449 1.544091,-0.003 1.752885,0.2723 0.45253,0.59664 0.267877,1.20431 -1.020883,3.35961 l -1.279181,2.13927 h -0.704844 c -0.727855,0 -8.659956,-0.46265 -10.669083,-0.6223 l -1.134551,-0.0901 v 0.89948 c 0,0.76623 0.23187,1.36411 1.565252,4.03604 l 1.565251,3.13658 5.332819,1.79814 5.33282,1.79813 v 1.31233 1.31232 l -2.677541,0.0624 -2.67754,0.0624 -3.992442,-1.4019 c -2.225544,-0.78147 -4.093385,-1.53995 -4.22053,-1.71383 -0.187057,-0.25581 -0.228089,0.1493 -0.228089,2.25193 0,2.28534 0.03451,2.57395 0.317675,2.65683 1.036635,0.30337 7.176181,2.174 7.896475,2.40594 l 0.862259,0.27765 v 1.24302 c 0,0.82242 -0.276404,2.453 -0.816876,4.81896 -0.449283,1.96677 -0.816877,3.60641 -0.816877,3.64365 0,0.0373 0.848894,0.0677 1.886431,0.0677 h 1.886431 l 0.594374,-3.08599 0.594375,-3.08597 h 0.695937 0.695938 v 2.2691 2.2691 h 0.750787 0.750786 l -0.111965,0.81688 -0.111965,0.81688 H 99.23703 104.63 l -0.67671,-0.5578 c -1.18645,-0.97797 -1.00963,-1.07596 1.94153,-1.07596 2.55497,0 2.63178,0.0114 3.17928,0.47211 l 0.56107,0.4721 1.15446,-0.46217 c 0.98506,-0.39434 1.47082,-0.4669 3.31034,-0.49442 1.96462,-0.0294 2.16177,-0.003 2.22231,0.30256 0.0416,0.20981 -0.15913,0.52313 -0.53773,0.8392 l -0.60416,0.50438 h 2.18125 2.18126 l 0.62116,-0.64088 c 0.45057,-0.46487 0.57252,-0.70753 0.44405,-0.88359 -0.0974,-0.1335 -0.83062,-1.11579 -1.62935,-2.18288 -0.79871,-1.06708 -1.47863,-2.05816 -1.51091,-2.20238 -0.0478,-0.21367 0.24634,-0.26223 1.58837,-0.26223 0.97703,0 1.64707,-0.0738 1.64707,-0.18153 0,-0.62735 0.68539,0.20528 2.35986,2.86682 1.04833,1.66629 1.93153,3.12765 1.96269,3.24748 0.0311,0.11983 0.31705,0.25043 0.63535,0.29024 0.54341,0.068 0.53442,0.0757 -0.14741,0.12718 l -0.72611,0.0548 0.72611,0.13001 0.72612,0.13001 -0.87313,0.0258 c -0.78346,0.0231 -0.97168,0.11896 -1.83282,0.93339 -0.6118,0.57862 -1.11785,0.90616 -1.39598,0.90354 -0.37124,-0.003 -0.22811,-0.19397 0.96008,-1.27769 l 1.39636,-1.27358 -1.3716,-2.12596 c -0.75437,-1.16929 -1.56769,-2.4323 -1.80737,-2.80671 l -0.43578,-0.68082 h -1.38112 c -1.07885,0 -1.34213,0.0497 -1.203,0.22691 0.16016,0.20405 2.5994,3.46374 3.04121,4.06413 0.26801,0.36422 -3.26606,3.8785 -3.89757,3.87573 -0.41634,-0.002 -0.36794,-0.0823 0.54118,-0.89978 l 0.9984,-0.89778 -2.21429,-0.008 -2.21429,-0.008 -1.10484,0.91945 c -0.71603,0.59588 -1.23947,0.89932 -1.48743,0.86226 -0.30431,-0.0455 0.0209,-0.39155 1.58915,-1.69095 l 1.97177,-1.63375 -1.7039,-0.0526 c -1.4764,-0.0455 -1.85764,0.009 -2.85552,0.40844 -0.6334,0.25357 -1.23791,0.46103 -1.34337,0.46103 -0.10545,0 -0.46322,-0.20707 -0.79504,-0.46017 -0.57134,-0.43578 -0.70636,-0.45742 -2.54848,-0.40843 l -1.94518,0.0517 2.05657,1.63375 c 1.64213,1.30453 1.97733,1.64517 1.66338,1.6904 -0.25437,0.0366 -0.80597,-0.26776 -1.56245,-0.86226 l -1.16928,-0.9189 h -5.811883 -5.811881 l -0.21774,0.90764 c -0.134478,0.56057 -0.316261,0.90764 -0.475384,0.90764 -0.174049,0 -0.227116,-0.13252 -0.163552,-0.40844 0.465689,-2.02145 0.633965,-2.78672 0.636253,-2.89349 0.0015,-0.0689 -0.303646,-0.15054 -0.678048,-0.18152 l -0.68073,-0.0563 -0.0508,-2.31449 c -0.02869,-1.30697 -0.125959,-2.31449 -0.223452,-2.31449 -0.212752,0 -0.212345,-0.001 -1.060142,4.44745 -0.532112,2.79247 -0.757863,3.64336 -0.977939,3.68601 -0.241883,0.0469 -0.261331,-0.0514 -0.125776,-0.63535 0.275548,-1.18706 0.339301,-1.14462 -1.718928,-1.14462 h -1.88794 l -0.21774,0.90765 c -0.141987,0.59187 -0.313017,0.90763 -0.491605,0.90763 -0.208158,0 -0.243764,-0.11977 -0.148403,-0.4992 z m 3.862134,-1.63176 c -0.574083,-0.036 -1.513491,-0.036 -2.087574,0 -0.574083,0.036 -0.104378,0.0655 1.043787,0.0655 1.148166,0 1.61787,-0.0295 1.043787,-0.0655 z m 15.838522,-0.002 c 10e-5,-0.0749 -1.65407,-0.11526 -3.67595,-0.0897 -7.002637,0.0884 -7.64369,0.14847 -1.996994,0.18709 3.120014,0.0213 5.672844,-0.0224 5.672944,-0.0974 z m 13.29675,0.002 c -0.624,-0.0355 -1.6451,-0.0355 -2.2691,0 -0.624,0.0355 -0.11346,0.0644 1.13455,0.0644 1.248,0 1.75855,-0.029 1.13455,-0.0644 z M 78.597986,173.58075 c 0.01446,-1.52581 -0.02255,-2.82303 -0.08224,-2.88272 -0.05969,-0.0597 -0.108532,1.2257 -0.108532,2.85643 0,1.63072 0.03701,2.92795 0.08223,2.88272 0.04523,-0.0452 0.09407,-1.33062 0.108533,-2.85643 z m -0.03072,-12.50636 c -0.02112,-0.66928 -0.02362,-0.67157 -0.149145,-0.13615 -0.120908,0.51576 -0.08752,0.81688 0.09057,0.81688 0.04403,0 0.07039,-0.30632 0.05857,-0.68073 z m -0.341579,-0.31767 c 0,-0.14976 -0.07912,-0.27229 -0.175831,-0.27229 -0.09671,0 -0.128812,0.12253 -0.07134,0.27229 0.05747,0.14976 0.136593,0.27229 0.175831,0.27229 0.03924,0 0.07134,-0.12253 0.07134,-0.27229 z m 0.315873,-7.11835 c -0.03614,-0.57773 -0.06603,-0.15186 -0.06644,0.94639 -4.1e-4,1.09825 0.02915,1.57093 0.06569,1.05041 0.03654,-0.52051 0.03688,-1.41908 7.55e-4,-1.9968 z m 8.92e-4,-10.90798 c -0.03258,-0.96813 -0.0591,-0.12649 -0.05894,1.87032 1.6e-4,1.99681 0.02681,2.78892 0.05923,1.76024 0.03242,-1.02867 0.03229,-2.66243 -2.92e-4,-3.63056 z m -0.0018,-7.97758 c -0.03739,-0.47424 -0.06799,-0.0862 -0.06799,0.86225 0,0.94849 0.03059,1.33651 0.06799,0.86226 0.03739,-0.47424 0.03739,-1.25027 0,-1.72451 z m 0.04532,-7.71495 c -0.0015,-1.62241 -0.0628,-2.85596 -0.136146,-2.74123 -0.139717,0.21853 -0.08466,5.69106 0.05726,5.69106 0.04492,0 0.08042,-1.32742 0.07889,-2.94983 z m -0.04743,-6.17196 c -0.04027,-0.32448 -0.07321,-0.059 -0.07321,0.58997 0,0.64896 0.03295,0.91445 0.07321,0.58997 0.04027,-0.32448 0.04027,-0.85546 0,-1.17994 z m 0.0035,-8.89488 c -0.03446,-0.72384 -0.06265,-0.13161 -0.06265,1.31608 0,1.44769 0.02819,2.03992 0.06265,1.31608 0.03446,-0.72384 0.03446,-1.90832 0,-2.63216 z m 19.321999,79.05552 c 0.08032,-0.69804 0.60724,-0.71427 1.600429,-0.0493 l 0.81687,0.54694 -0.549569,6.8e-4 c -0.302266,4.3e-4 -0.731126,-0.12638 -0.953022,-0.2818 -0.365152,-0.25577 -0.403448,-0.25577 -0.403448,0 0,0.15542 -0.127958,0.28258 -0.28435,0.28258 -0.203106,0 -0.267938,-0.14263 -0.22691,-0.4992 z m 29.918819,0.43557 c 0,-0.035 0.42126,-0.3255 0.93614,-0.64556 1.0404,-0.64675 1.34608,-0.6135 2.42213,0.26353 l 0.54459,0.44386 -0.47473,6.9e-4 c -0.26109,4.9e-4 -0.6897,-0.16821 -0.95248,-0.3749 l -0.47775,-0.37581 -0.52777,0.37581 c -0.4395,0.31295 -1.47013,0.5318 -1.47013,0.31217 z m -1.17993,-2.11471 0.36305,-0.15601 -0.36305,-0.0255 -0.36306,-0.0255 0.36306,-0.15601 c 0.49904,-0.21445 0.78564,-0.21445 0.45382,0 -0.24204,0.15641 -0.24204,0.17658 0,0.18152 0.24204,0.005 0.24204,0.0251 0,0.18153 -0.14976,0.0968 -0.39483,0.17148 -0.54459,0.16599 -0.17953,-0.007 -0.14862,-0.0631 0.0908,-0.16599 z m 1.24744,-0.60412 c 0.0191,-0.12995 0.33843,-0.54003 0.7097,-0.91129 0.37126,-0.37126 0.67501,-0.76266 0.67501,-0.86978 0,-0.13331 -0.50104,-0.15538 -1.58836,-0.07 l -1.58838,0.12479 -1.13455,-1.92699 c -0.624,-1.05984 -1.13455,-2.07907 -1.13455,-2.26496 0,-0.36087 -0.0339,-0.35586 4.49282,-0.66331 l 1.67914,-0.11405 v -1.96205 -1.96204 l -1.40684,-0.11893 c -1.84506,-0.15597 -1.86067,-0.1633 -1.86067,-0.87504 0,-0.62731 1.71353,-8.52803 1.92314,-8.86719 0.0641,-0.10372 0.39281,-0.15633 0.73046,-0.11692 l 0.61391,0.0717 v -1.75544 -1.75544 l -0.91358,-0.12119 c -0.50247,-0.0667 -0.98582,-0.0766 -1.0741,-0.022 -0.0883,0.0546 -0.66814,1.01756 -1.28857,2.14 -3.87504,7.01037 -5.67304,10.10659 -5.81723,10.01748 -0.0905,-0.0559 -0.16446,-0.50525 -0.16446,-0.99857 v -0.89692 h -1.36146 c -1.11956,0 -1.36146,-0.0509 -1.36146,-0.28669 0,-0.54662 7.44414,-14.01208 7.7974,-14.10447 0.1846,-0.0483 1.2014,0.0512 2.25955,0.22099 l 1.92391,0.30875 v -1.41613 c 0,-1.32357 -0.0267,-1.42142 -0.40844,-1.49711 -0.22464,-0.0445 -3.26751,-0.21134 -6.76193,-0.37068 -3.49441,-0.15934 -6.7022,-0.33392 -7.12842,-0.38794 -0.82157,-0.10415 -1.18168,-0.45921 -1.41079,-1.39104 l -0.12273,-0.4992 h 2.65184 2.65183 v -0.72611 c 0,-0.39936 0.0613,-0.72486 0.13615,-0.72334 0.0749,0.001 2.26003,0.16365 4.85588,0.36028 2.59586,0.19663 4.90353,0.35876 5.12817,0.36028 l 0.40844,0.003 -0.0105,-3.40365 -0.0104,-3.40365 -0.43309,0.95302 c -0.52876,1.16356 -0.19176,1.13948 -5.71796,0.40844 -2.24641,-0.29718 -4.14565,-0.54127 -4.22053,-0.54245 -0.0749,-0.001 -0.13614,-1.47251 -0.13614,-3.26964 v -3.26751 h 0.62463 c 0.34355,0 0.67056,0.0743 0.7267,0.16513 0.0561,0.0908 -0.0618,0.54748 -0.26216,1.0148 -0.20032,0.46733 -0.31829,0.92399 -0.26216,1.0148 0.0561,0.0908 0.41917,0.16513 0.80674,0.16513 0.38758,0 0.7602,0.0898 0.82804,0.19959 0.0755,0.12209 0.53662,-0.20938 1.1877,-0.85366 l 1.06435,-1.05325 0.54753,0.52457 c 0.30114,0.28851 0.54753,0.61418 0.54753,0.72372 0,0.30861 -1.86951,2.01218 -2.19912,2.0039 -0.39399,-0.01 -0.90912,-0.45435 -0.77607,-0.66961 0.06,-0.0971 0.26143,-0.0329 0.45962,0.14652 0.34087,0.30848 0.38146,0.29068 1.1971,-0.52496 0.83482,-0.83482 0.84046,-0.84849 0.50346,-1.22086 l -0.34081,-0.37659 -0.88124,0.86799 c -0.48469,0.4774 -0.93548,0.82715 -1.00175,0.77723 -0.0663,-0.0499 -0.1493,0.20479 -0.18449,0.56602 l -0.064,0.65677 1.55287,0.0211 1.55289,0.0211 v -0.63255 c 0,-0.73133 -0.13155,-0.71031 2.2691,-0.3625 0.9984,0.14466 1.99907,0.2656 2.22371,0.26876 l 0.40845,0.005 v -6.53501 -6.53501 h -2.44094 -2.44093 L 122.821,131.1674 c -1.92476,-1.15999 -2.34178,-1.34432 -2.82338,-1.248 l -0.56506,0.113 v -2.0195 c 0,-1.11072 0.0613,-2.01849 0.13615,-2.01724 0.0749,0.001 0.8598,0.20244 1.74426,0.44712 1.39186,0.38504 2.0702,0.7387 5.04419,2.6299 1.88983,1.20177 3.47386,2.18504 3.52005,2.18504 0.0462,0 0.084,-0.96373 0.084,-2.14162 v -2.14162 l -3.90286,-2.68252 c -2.14657,-1.47538 -3.90286,-2.79429 -3.90286,-2.93092 0,-0.13662 1.26608,-2.06773 2.8135,-4.29136 2.23747,-3.2152 2.76708,-4.08838 2.58678,-4.26487 -0.1247,-0.12206 -1.86491,-1.35021 -3.86715,-2.72922 -9.61732,-6.6235 -9.8649,-6.8102 -9.87454,-7.44631 -0.007,-0.45336 0.55902,-1.44038 2.54989,-4.44744 2.43974,-3.685056 3.10794,-4.751004 2.79553,-4.4596 -0.0774,0.07221 -0.4474,-0.111589 -0.8222,-0.408438 -0.3748,-0.296849 -0.75623,-0.539725 -0.84762,-0.539725 -0.0914,0 -1.19331,1.4908 -2.4487,3.312889 l -2.28253,3.312889 -2.42644,0.890255 c -8.26776,3.03341 -11.140167,4.23061 -12.6374,5.26716 -1.399735,0.96905 -1.781883,1.376 -1.292123,1.376 0.113017,0 1.018288,0.3676 2.011715,0.81688 0.993427,0.44928 1.887328,0.81688 1.986448,0.81688 0.0991,0 2.50146,-1.22532 5.33852,-2.72292 2.83706,-1.49761 5.27163,-2.72293 5.41017,-2.72293 0.37771,0 2.89576,2.45714 2.80306,2.73525 -0.0442,0.1325 -2.22142,1.42468 -4.83833,2.87151 l -4.75804,2.6306 1.23018,1.09976 c 0.67661,0.60487 2.59668,2.38656 4.26684,3.95932 l 3.03666,2.85957 h 1.53791 1.53791 l 1.52773,-1.95143 c 1.7524,-2.23842 1.77598,-1.88654 -0.24667,-3.68164 l -1.1876,-1.054 -1.89838,1.1646 c -1.12416,0.68964 -2.10257,1.16485 -2.39907,1.1652 -0.74678,6.8e-4 -3.41762,-1.80032 -3.35772,-2.26445 0.0333,-0.25798 1.11898,-0.98174 3.85842,-2.57217 2.09665,-1.21724 3.95083,-2.21974 4.1204,-2.22778 0.51651,-0.0245 7.7697,6.15619 7.7697,6.6208 0,0.19877 -4.64361,6.43462 -4.79163,6.43462 -0.0245,0 -1.2641,0.44837 -2.75464,0.99636 -1.49054,0.548 -2.81219,0.99728 -2.93699,0.99841 -0.13869,0.001 -0.22691,-0.24496 -0.22691,-0.6333 v -0.63535 h -1.68161 -1.68161 l -4.35401,-4.16601 -4.35401,-4.16599 -2.087758,-0.88891 c -1.14827,-0.48889 -3.90367,-1.6979 -6.123111,-2.68669 -3.334908,-1.48573 -4.03598,-1.86179 -4.039002,-2.16654 -0.0024,-0.24161 1.295179,-1.65431 3.763055,-4.09694 l 3.766709,-3.728174 6.643557,-2.075021 6.64356,-2.075022 1.56012,-2.359866 c 0.85806,-1.297926 1.58525,-2.482102 1.61597,-2.631502 0.0307,-0.149399 0.16961,-0.361036 0.30864,-0.470303 0.18109,-0.142326 0.22726,-0.464269 0.16279,-1.135208 -0.066,-0.68722 -0.0281,-0.93654 0.14259,-0.93654 0.3297,0 0.53837,1.837331 0.26637,2.345545 -0.11561,0.216016 -0.97641,1.56764 -1.9129,3.003608 l -1.70271,2.610852 -2.14426,0.6676 c -1.17935,0.367181 -4.18646,1.314202 -6.68247,2.104492 l -4.5382,1.436889 -3.670275,3.67265 -3.670275,3.67264 3.034926,1.35102 c 1.66921,0.74306 4.412688,1.94822 6.09662,2.67813 l 3.061694,1.32712 4.31121,4.17456 4.3112,4.17455 h 1.64663 1.64662 l 0.0569,0.5125 0.0569,0.5125 2.56474,-0.92094 2.56474,-0.92094 2.17426,-2.83415 c 1.19585,-1.55878 2.22343,-2.91369 2.28351,-3.01091 0.10702,-0.17317 -1.38848,-1.52412 -4.79545,-4.33194 -0.93821,-0.77321 -1.83832,-1.51901 -2.00025,-1.65733 -0.2582,-0.22054 -0.7275,-0.002 -3.8121,1.77362 -1.93471,1.11382 -3.58719,2.0892 -3.67217,2.16751 -0.085,0.0783 0.46098,0.55773 1.21326,1.06536 l 1.36778,0.92298 2.0508,-1.2681 c 1.12794,-0.69745 2.16155,-1.2681 2.29692,-1.2681 0.31424,0 3.43375,2.91552 3.46137,3.23503 0.0114,0.1319 -0.72562,1.21426 -1.63782,2.40524 l -1.65854,2.16544 h -1.78202 -1.78201 l -1.25784,-1.13454 c -4.15761,-3.75009 -7.65399,-7.12164 -7.65399,-7.38071 0,-0.20427 1.50817,-1.13184 4.73329,-2.91111 l 4.73329,-2.61133 -1.07797,-1.07796 -1.07796,-1.07796 -5.18158,2.74172 c -2.84986,1.50795 -5.34672,2.74173 -5.54856,2.74173 -0.20184,0 -1.136865,-0.35733 -2.077835,-0.79406 -0.940971,-0.43673 -2.008675,-0.89235 -2.372676,-1.01248 -0.41639,-0.13742 -0.65942,-0.33101 -0.655347,-0.52202 0.01195,-0.56043 3.39234,-2.67055 5.735878,-3.58049 3.15739,-1.22593 9.85382,-3.723245 10.63278,-3.965317 0.60335,-0.187494 0.95695,-0.62177 3.41846,-4.198404 l 2.7455,-3.98928 -0.073,-1.497607 c -0.0525,-1.077633 -0.0125,-1.497608 0.14297,-1.497608 0.46492,0 0.61445,2.974121 0.17851,3.550486 -0.40146,0.530791 -0.34495,0.691675 0.47423,1.349986 0.68094,0.547216 0.77323,0.575924 0.97303,0.302674 0.12141,-0.166037 0.33427,-0.300356 0.47303,-0.298489 0.46843,0.0063 3.15492,1.55602 3.2121,1.852917 0.0312,0.161933 -0.96655,1.827979 -2.21718,3.702324 l -2.27388,3.407898 0.76562,0.50793 c 0.42109,0.27936 0.82453,0.48788 0.89655,0.46338 0.072,-0.0245 0.7771,-1.07669 1.56688,-2.33818 l 1.43594,-2.293622 -0.65923,-0.69926 c -0.60777,-0.644667 -0.59493,-0.63921 0.16451,0.0699 1.16064,1.083735 1.3378,0.957967 0.25898,-0.183862 l -0.90043,-0.953022 1.09152,1.04129 c 1.17797,1.123759 0.99427,1.043715 5.94193,2.589006 1.9025,0.59421 2.67753,0.91586 2.67753,1.11123 0,0.19918 -0.10811,0.24065 -0.39226,0.15046 -4.04477,-1.28376 -7.85749,-2.412727 -7.95166,-2.354531 -0.0663,0.04098 -0.75586,1.100151 -1.53235,2.353711 -0.77649,1.25356 -1.49047,2.2792 -1.58662,2.2792 -0.34758,0 -2.33325,-1.47225 -2.33325,-1.72996 0,-0.14531 1.0222,-1.77341 2.27154,-3.618016 2.57701,-3.804842 2.51756,-3.34065 0.55346,-4.320688 l -0.89633,-0.447249 -2.89293,4.375769 c -1.59111,2.406674 -2.92804,4.467254 -2.97095,4.579064 -0.0674,0.1756 5.15235,3.93267 12.0586,8.67956 1.35944,0.93438 2.04219,1.51587 2.04219,1.73929 0,0.1846 -1.26554,2.15214 -2.8123,4.37231 -2.5208,3.61825 -2.77952,4.05843 -2.49601,4.24665 5.09538,3.38279 8.93887,6.16381 8.93887,6.46787 0,0.33511 -0.0405,0.32876 -0.68072,-0.10667 l -0.68073,-0.46299 -0.0515,2.12497 c -0.0425,1.75763 -0.003,2.15191 0.22691,2.28075 0.35782,0.20025 0.36165,0.68232 0.005,0.68232 -0.24043,0 -0.26745,1.32433 -0.22691,11.11859 l 0.046,11.11861 0.68074,0.0563 c 0.43374,0.0359 0.68072,0.14806 0.68072,0.30912 0,0.19224 -0.20653,0.23284 -0.86226,0.16951 -0.47424,-0.0458 -2.65938,-0.20573 -4.85587,-0.35538 -2.19649,-0.14965 -4.54502,-0.32083 -5.21894,-0.38041 l -1.22531,-0.10832 v 0.65378 0.65377 h -2.5375 -2.53751 l 0.19976,0.43843 c 0.10987,0.24114 0.36015,0.48038 0.55617,0.53164 0.19602,0.0513 3.98455,0.27863 8.41894,0.50527 6.28745,0.32135 8.06252,0.46409 8.06252,0.6483 0,0.15458 -0.25097,0.23622 -0.72611,0.23622 h -0.72611 v 1.43281 c 0,1.53132 0.0747,1.65317 1.01325,1.65317 0.26918,0 0.43897,0.10533 0.43897,0.27229 0,0.34533 0.13719,0.35331 -3.11935,-0.18113 -1.79931,-0.29528 -2.82482,-0.39155 -2.94037,-0.27601 -0.0976,0.0976 -1.79126,3.14027 -3.76374,6.76154 l -3.58632,6.58411 1.25905,0.0533 c 1.22832,0.052 1.25904,0.0651 1.25904,0.5355 0,0.29062 0.0644,0.41366 0.16208,0.30973 0.0891,-0.0949 1.53482,-2.65227 3.21262,-5.68316 1.6778,-3.03088 3.15591,-5.55111 3.28468,-5.60053 0.43335,-0.16629 4.10762,0.56619 4.19685,0.83665 0.0661,0.20037 -0.0747,0.23279 -0.66647,0.15342 l -0.75029,-0.10063 v 1.7051 1.7051 l 0.72611,0.11611 c 0.44796,0.0716 0.72611,0.21392 0.72611,0.37145 0,0.20415 -0.19106,0.22828 -0.95302,0.1204 -0.52416,-0.0742 -1.19473,-0.13831 -1.49015,-0.1424 l -0.53713,-0.007 -0.86061,3.81209 c -0.96933,4.29363 -1.02882,4.80487 -0.56114,4.82242 1.54971,0.0582 4.29356,0.47938 4.35669,0.66881 0.0523,0.15682 -0.15332,0.22691 -0.66562,0.22691 h -0.74124 v 1.922 1.922 l 0.72611,-0.12267 c 0.56966,-0.0962 0.72611,-0.0659 0.72611,0.1405 0,0.30998 -0.94863,0.42672 -4.9525,0.6095 -1.47587,0.0674 -2.66033,0.17764 -2.63216,0.24504 0.0282,0.0674 0.50053,0.87973 1.04965,1.80519 l 0.9984,1.68265 1.63376,-0.11232 c 0.89856,-0.0617 2.1443,-0.16095 2.76831,-0.22039 0.96838,-0.0923 1.13454,-0.0651 1.13454,0.18536 0,0.23118 -0.19293,0.29343 -0.90941,0.29343 -0.71031,0 -0.97859,0.0852 -1.22532,0.38897 -1.30965,1.61258 -2.05111,2.2627 -1.97291,1.72983 z m 1.09828,-0.88078 c 0.35722,-0.41733 0.64895,-0.84619 0.6483,-0.95302 -6.6e-4,-0.10683 -0.16158,0.0508 -0.3576,0.35035 -0.19602,0.29952 -0.5835,0.72798 -0.86106,0.95212 -0.27757,0.22414 -0.40892,0.40794 -0.2919,0.40844 0.11702,5e-4 0.50504,-0.34055 0.86226,-0.75789 z m 1.32822,-8.81682 c -0.036,-0.57408 -0.0655,-0.10437 -0.0655,1.04379 0,1.14816 0.0295,1.61787 0.0655,1.04379 0.036,-0.57409 0.036,-1.51349 0,-2.08758 z m -1e-4,-13.33623 c -0.0368,-0.52752 -0.0673,-0.14224 -0.0677,0.85617 -4.7e-4,0.99841 0.0296,1.43001 0.0669,0.95911 0.0373,-0.4709 0.0377,-1.28777 6.8e-4,-1.81528 z m -0.001,-6.90416 c -0.0382,-0.42432 -0.0695,-0.0772 -0.0695,0.77149 0,0.84865 0.0313,1.19582 0.0695,0.7715 0.0382,-0.42432 0.0382,-1.11867 0,-1.54299 z m 0.003,-9.70189 c -0.0322,-1.07871 -0.0586,-0.24586 -0.0587,1.85079 -1.4e-4,2.09666 0.0261,2.97924 0.0585,1.9613 0.0323,-1.01794 0.0324,-2.73338 2.6e-4,-3.81209 z m -0.89247,-1.37133 0.69039,-1.4976 -1.37358,-0.20029 c -0.75547,-0.11016 -1.80244,-0.25592 -2.3266,-0.32392 l -0.95303,-0.12365 v 0.6416 0.6416 h -1.90604 -1.90605 v -0.90764 c 0,-0.76645 -0.053,-0.90764 -0.34037,-0.90764 -0.1872,0 -0.59884,-0.0517 -0.91477,-0.11488 l -0.57441,-0.11488 0.0525,1.69895 0.0525,1.69896 3.63056,0.48112 c 1.99681,0.26461 3.97884,0.49118 4.40451,0.5035 l 0.77395,0.0224 z m -6.50421,-1.83843 c 0,-0.0377 -0.14295,-0.18066 -0.31767,-0.31768 -0.28792,-0.2258 -0.29434,-0.21937 -0.0686,0.0685 0.23715,0.30238 0.38622,0.39855 0.38622,0.24914 z m 2.07616,-2.04969 c -0.10458,-0.16578 -0.35301,-0.40956 -0.55207,-0.54173 -0.32843,-0.21807 -0.44512,-0.1523 -1.26069,0.71062 l -0.89876,0.95092 0.91778,-0.86609 0.91778,-0.8661 0.43332,0.46125 0.43332,0.46125 -0.89491,0.94944 -0.89491,0.94942 0.99463,-0.95377 c 0.81091,-0.7776 0.95952,-1.00946 0.80451,-1.25521 z m 5.32091,-7.9901 c -0.0295,-1.87854 -0.0537,-0.39308 -0.0538,3.30102 -7e-5,3.6941 0.0241,5.23108 0.0537,3.41552 0.0296,-1.81556 0.0296,-4.838 1e-4,-6.71654 z m -10.12277,6.97696 c 0.001,-0.0749 -0.0789,-0.13615 -0.17876,-0.13615 -0.0998,0 -0.18027,0.1838 -0.17874,0.40844 0.002,0.33028 0.0364,0.35634 0.17874,0.13615 0.0968,-0.14976 0.17723,-0.33356 0.17876,-0.40844 z m 9.70546,-10.82239 c -0.4529,-0.41394 -7.18767,-4.5888 -7.64176,-4.7371 -0.28486,-0.093 -0.94679,-0.29155 -1.47096,-0.44113 l -0.95302,-0.27196 v 1.4379 1.4379 l 0.4992,-0.0877 c 0.3914,-0.0687 1.00882,0.22492 2.85907,1.35986 l 2.35986,1.44754 2.26003,0.006 c 1.28906,0.003 2.18594,-0.0616 2.08758,-0.15148 z m 0.41615,-3.78308 c -0.035,-0.67807 -0.064,-0.17092 -0.0642,1.12701 -3.2e-4,1.29792 0.0283,1.85271 0.0637,1.23286 0.0353,-0.61986 0.0356,-1.68179 5.7e-4,-2.35987 z M 118.43418,93.042594 c -0.39936,-0.344207 -0.79846,-0.627048 -0.88689,-0.628533 -0.0884,-0.0015 0.19748,0.279004 0.63535,0.623309 1.02915,0.809242 1.18822,0.812545 0.25154,0.0052 z m 12.49541,82.019516 c -0.50517,-0.0985 -0.62271,-0.42423 -0.42451,-1.17644 0.0875,-0.33193 0.24908,-0.95068 0.35915,-1.375 0.1672,-0.64448 0.27371,-0.7715 0.64697,-0.7715 0.27616,0 0.44683,0.104 0.44683,0.2723 0,0.14976 -0.11248,0.27229 -0.24995,0.27229 -0.25366,0 -0.88988,2.06717 -0.69592,2.26112 0.0543,0.0543 0.28934,0.0987 0.5223,0.0987 0.25549,0 0.42357,0.10805 0.42357,0.27228 0,0.26656 -0.23786,0.30037 -1.02844,0.1462 z m -17.44205,-4.00865 -2.58678,-0.0504 v -0.71041 c 0,-0.89484 0.23187,-1.04666 0.69647,-0.45601 l 0.36248,0.46081 2.97692,-4.40733 c 3.38158,-5.00642 3.02353,-4.72788 5.49436,-4.2742 1.03819,0.19061 1.28028,0.29988 1.32308,0.59712 0.0321,0.22314 -1.00179,1.9724 -2.67377,4.52368 -1.49939,2.28792 -2.78912,4.20648 -2.86607,4.26346 -0.0769,0.057 -1.30397,0.0809 -2.72669,0.0532 z m 5.03839,-4.52551 c 1.48892,-2.26712 2.68099,-4.14817 2.64906,-4.1801 -0.0319,-0.0319 -0.67371,-0.16512 -1.42616,-0.29597 l -1.36811,-0.2379 -2.9231,4.32023 c -1.60771,2.37613 -2.9231,4.36423 -2.9231,4.41801 0,0.0538 0.73896,0.0978 1.64215,0.0978 h 1.64216 z m -28.455527,0.52843 c -3.697748,-1.20729 -4.220131,-1.42421 -4.217307,-1.75124 0.0018,-0.2053 0.40913,-1.00636 0.90524,-1.78012 0.697876,-1.08845 0.99692,-1.40684 1.321358,-1.40684 0.230638,0 1.391942,0.32675 2.580675,0.72611 1.188734,0.39936 2.258945,0.72611 2.378249,0.72611 0.330311,0 4.43404,-7.17889 4.382169,-7.66598 -0.04306,-0.40435 -0.0051,-0.41298 2.041491,-0.46375 1.803262,-0.0447 2.116362,-0.009 2.314482,0.2616 0.12602,0.17234 0.22912,0.47234 0.22912,0.66667 0,0.32751 -5.861035,10.18935 -6.842204,11.51276 -0.24057,0.32448 -0.535352,0.58157 -0.655071,0.57131 -0.119719,-0.0102 -2.11691,-0.63874 -4.438202,-1.39663 z m 7.936346,-4.84779 c 2.567491,-4.22048 3.448631,-5.8135 3.363671,-6.0812 -0.10376,-0.32692 -0.27507,-0.3627 -1.736639,-0.3627 -1.518852,0 -1.62152,0.0238 -1.62152,0.37582 0,0.20669 -0.995167,2.08551 -2.211484,4.17515 -1.985983,3.41192 -2.259872,3.79933 -2.686043,3.79933 -0.261007,0 -1.447159,-0.32675 -2.635893,-0.72611 -1.188733,-0.39936 -2.246847,-0.72278 -2.351364,-0.71871 -0.193365,0.008 -1.829494,2.50623 -1.708458,2.60915 0.03641,0.0309 1.863332,0.63441 4.059822,1.34099 2.196491,0.70658 4.006108,1.28966 4.02137,1.29573 0.01526,0.006 1.593205,-2.56228 3.506538,-5.70745 z m 1.457737,6.01162 c 0,-0.1383 1.909264,-2.86996 4.242814,-6.07035 3.50334,-4.80474 4.22733,-5.89988 4.15398,-6.28356 l -0.0888,-0.46467 h 1.91014 1.91015 l 0.28935,0.84922 c 0.15914,0.46707 0.28936,1.00489 0.28936,1.19516 0,0.27906 -4.82553,6.80971 -7.57683,10.25416 l -0.61625,0.77149 h -2.25694 c -1.802045,0 -2.256954,-0.0507 -2.256954,-0.25145 z m 4.583334,-0.70157 c 0.14763,-0.22464 1.92254,-2.56917 3.94426,-5.21005 l 3.67586,-4.80163 -0.25589,-0.82575 -0.25589,-0.82575 -1.41313,-0.0533 c -1.34085,-0.0506 -1.40726,-0.0347 -1.29816,0.30901 0.0883,0.27809 -0.85507,1.6934 -4.05855,6.0891 l -4.17355,5.72679 h 1.78332 c 1.64882,0 1.80356,-0.0308 2.05173,-0.40844 z m 3.58544,0.68331 c 0,-0.14834 0.32886,-0.48735 0.73081,-0.75334 l 0.7308,-0.48363 0.44913,0.42193 c 0.24701,0.23206 0.44912,0.57106 0.44912,0.75334 0,0.28688 -0.15857,0.33141 -1.17993,0.33141 -0.92281,0 -1.17993,-0.0588 -1.17993,-0.26971 z m 1.58458,-0.38454 c -0.0603,-0.0603 -0.21688,-0.0668 -0.34793,-0.0143 -0.14481,0.058 -0.10179,0.10096 0.10968,0.10967 0.19136,0.008 0.29858,-0.035 0.23825,-0.0953 z m 22.37991,-17.907 c 0.001,-0.22464 0.082,-0.53097 0.17875,-0.68073 0.13089,-0.20254 0.17668,-0.0979 0.17875,0.40843 0.001,0.37441 -0.0789,0.68074 -0.17875,0.68074 -0.0998,0 -0.18028,-0.1838 -0.17875,-0.40844 z m -54.642758,-5.3026 c 0,-0.457 0.07276,-0.64874 0.22691,-0.59797 0.340003,0.11197 0.374429,0.7716 0.05414,1.03742 -0.245119,0.20343 -0.281053,0.14724 -0.281053,-0.43945 z m 26.911548,0.13517 c 0.27457,-0.0416 0.72385,-0.0416 0.99841,0 0.27456,0.0416 0.05,0.0756 -0.4992,0.0756 -0.54913,0 -0.77377,-0.034 -0.49921,-0.0756 z m -0.98706,-0.17551 c 0.13105,-0.0524 0.28761,-0.046 0.34793,0.0143 0.0603,0.0603 -0.0469,0.10322 -0.23825,0.0953 -0.21147,-0.009 -0.25449,-0.0517 -0.10968,-0.10967 z m 2.84773,-0.0576 0.36306,-0.15601 -0.36306,-0.0255 -0.36306,-0.0255 0.36306,-0.15601 c 0.49903,-0.21444 0.78565,-0.21444 0.45382,0 -0.24204,0.15642 -0.24204,0.17659 0,0.18153 0.24204,0.005 0.24204,0.0251 0,0.18153 -0.14976,0.0968 -0.39483,0.17148 -0.54459,0.16599 -0.17954,-0.007 -0.14862,-0.0631 0.0908,-0.16599 z m -3.90785,-0.29973 c -0.62516,-0.41747 -1.62615,-1.36534 -1.822791,-1.72604 -0.257183,-0.47177 0.326791,-0.30298 0.675821,0.19534 0.16029,0.22885 0.66442,0.65262 1.1203,0.94173 0.45586,0.2891 0.71075,0.5269 0.56641,0.52843 -0.22233,0.002 -0.22083,0.0297 0.01,0.17874 0.14976,0.0968 0.18836,0.17722 0.0858,0.17875 -0.10258,0.001 -0.38849,-0.13209 -0.63534,-0.29695 z m -0.31155,-0.59508 c -0.40374,-0.29247 -0.86528,-0.71909 -1.02564,-0.94804 -0.16037,-0.22895 -0.29157,-0.32335 -0.29157,-0.20978 0,0.24245 1.60001,1.68958 1.86807,1.68958 0.10077,0 -0.14712,-0.2393 -0.55086,-0.53176 z m 2.35873,0.76479 c 0.27457,-0.0416 0.72385,-0.0416 0.99841,0 0.27456,0.0416 0.05,0.0756 -0.4992,0.0756 -0.54913,0 -0.77377,-0.034 -0.49921,-0.0756 z m -0.98706,-0.17551 c 0.13105,-0.0524 0.28761,-0.046 0.34793,0.0143 0.0603,0.0603 -0.0469,0.10322 -0.23825,0.0953 -0.21147,-0.009 -0.25449,-0.0517 -0.10968,-0.10967 z m 3.73237,-0.1188 c 0.0198,-0.13446 0.35293,-0.52286 0.74043,-0.86309 0.38751,-0.34024 0.85401,-0.86368 1.03667,-1.1632 0.18267,-0.29953 0.33367,-0.42206 0.33557,-0.2723 0.003,0.24204 0.023,0.24204 0.17943,0 0.0992,-0.15356 0.17718,-0.18045 0.17875,-0.0617 0.005,0.34847 -1.3589,1.94489 -1.95268,2.28625 -0.41861,0.24065 -0.54529,0.25875 -0.51817,0.074 z m 1.30047,-0.95379 c 0.44556,-0.45844 0.8101,-0.91399 0.8101,-1.01233 0,-0.0983 -0.20816,0.0686 -0.46258,0.37095 -0.25442,0.30236 -0.70997,0.75792 -1.01233,1.01233 -0.30236,0.25442 -0.45875,0.46258 -0.34753,0.46258 0.11123,0 0.56678,-0.37508 1.01234,-0.83353 z m 12.84582,-1.5177 c -0.0723,-0.27637 -0.2454,-0.37169 -0.67507,-0.37169 -0.31783,0 -0.6759,-0.098 -0.7957,-0.21783 -0.23914,-0.23913 -0.31081,-2.97038 -0.0817,-3.11299 0.0749,-0.0466 0.12742,0.62249 0.11676,1.48689 l -0.0194,1.57164 0.12225,-1.45222 0.12226,-1.45223 0.0333,1.31608 c 0.0323,1.27392 0.0478,1.31608 0.48711,1.31608 0.43792,0 0.45429,-0.043 0.46731,-1.22531 0.007,-0.67393 0.0494,-1.41972 0.0932,-1.65733 0.0481,-0.26058 -0.0342,-0.51532 -0.20735,-0.64193 -0.20539,-0.15019 -0.27066,-0.4405 -0.22936,-1.02021 l 0.0577,-0.8103 h 1.63375 1.63375 l 0.0259,0.81687 0.0259,0.81689 -0.11671,-0.72612 -0.11672,-0.72611 h -1.45222 -1.45223 v 0.71098 c 0,0.43069 0.0913,0.72948 0.23146,0.75788 0.12729,0.0258 0.14771,0.005 0.0453,-0.0454 -0.10234,-0.0508 -0.18607,-0.37137 -0.18607,-0.7125 v -0.62022 h 1.38053 1.38052 l -0.0678,0.71085 c -0.0373,0.39096 -0.005,0.67205 0.0717,0.62464 0.0767,-0.0474 0.13948,0.005 0.13948,0.11674 0,0.11163 0.0833,0.15148 0.18508,0.0886 0.10179,-0.0629 0.46939,-0.0206 0.81688,0.0941 l 0.6318,0.20851 v 2.0735 c 0,2.28318 -0.0377,2.34492 -1.09819,1.79654 l -0.53557,-0.27695 v -1.78037 c 0,-0.9792 -0.0339,-1.8144 -0.0752,-1.856 -0.0414,-0.0416 -0.53151,-0.0477 -1.08917,-0.0134 l -1.01392,0.0622 v 1.98001 1.98001 l 0.95302,0.0215 c 0.52416,0.0118 1.02194,0.009 1.10618,-0.005 0.0842,-0.015 0.11858,0.0775 0.0763,0.20542 -0.0499,0.15088 -0.50738,0.25155 -1.30245,0.28659 -1.10608,0.0488 -1.23507,0.0178 -1.32279,-0.31767 z m 1.35199,0.0388 c -0.81329,-0.0511 -1.04379,-0.13031 -1.04379,-0.35899 0,-0.16142 -0.0509,-0.24255 -0.11319,-0.1803 -0.0622,0.0622 -0.0648,0.23924 -0.005,0.39331 0.082,0.21375 0.35619,0.27199 1.15698,0.2458 l 1.04948,-0.0343 z m -1.63164,-0.71669 c -0.17356,-0.0454 -0.50031,-0.0471 -0.72611,-0.003 -0.22581,0.0434 -0.0838,0.0806 0.31555,0.0826 0.39937,0.002 0.58412,-0.0336 0.41056,-0.079 z m 4.03689,-1.5998 c 0,-1.25053 -0.0516,-1.54299 -0.2723,-1.54299 -0.22068,0 -0.27229,0.29246 -0.27229,1.54299 0,1.25053 0.0516,1.54299 0.27229,1.54299 0.22068,0 0.2723,-0.29246 0.2723,-1.54299 z m -3.51035,-1.95142 c -0.0504,-0.1248 -0.0915,-0.0227 -0.0915,0.22691 0,0.2496 0.0412,0.35171 0.0915,0.22691 0.0504,-0.1248 0.0504,-0.32902 0,-0.45382 z m 2.05812,-1.13456 c 0,-0.43753 -0.0423,-0.45382 -1.17993,-0.45382 -1.13758,0 -1.17994,0.0163 -1.17994,0.45382 0,0.43754 0.0423,0.45382 1.17994,0.45382 1.13757,0 1.17993,-0.0163 1.17993,-0.45382 z m -23.664166,5.08317 c -0.06381,-0.1663 -0.107884,-0.43864 -0.09793,-0.60519 0.01094,-0.18313 0.07554,-0.12344 0.163433,0.15099 l 0.145339,0.45383 0.0337,-0.45383 c 0.03254,-0.43827 0.03918,-0.43547 0.19362,0.0816 0.08796,0.29451 0.121781,0.5736 0.07516,0.62022 -0.04662,0.0466 -0.08601,-0.0309 -0.08754,-0.1724 -0.0023,-0.21009 -0.03088,-0.21284 -0.156266,-0.015 -0.122437,0.19315 -0.176958,0.18097 -0.269513,-0.0602 z m 9.540356,-0.90802 c 0.003,-0.29952 0.0444,-0.40008 0.0904,-0.22345 0.046,0.17662 0.043,0.42168 -0.007,0.54458 -0.0497,0.1229 -0.0874,-0.0216 -0.0837,-0.32113 z m 0.36306,0 c 0.003,-0.29952 0.0444,-0.40008 0.0904,-0.22345 0.046,0.17662 0.043,0.42168 -0.007,0.54458 -0.0497,0.1229 -0.0874,-0.0216 -0.0837,-0.32113 z m -10.155192,-0.72611 c 0.002,-0.39936 0.03919,-0.54137 0.08261,-0.31556 0.04342,0.22581 0.04177,0.55256 -0.0036,0.72611 -0.04543,0.17356 -0.08096,-0.0112 -0.07895,-0.41055 z m 0.363056,0 c 0.002,-0.39936 0.03919,-0.54137 0.08261,-0.31556 0.04342,0.22581 0.04177,0.55256 -0.0036,0.72611 -0.04543,0.17356 -0.08096,-0.0112 -0.07895,-0.41055 z m 9.429076,-0.72612 c 0.003,-0.29952 0.0444,-0.40007 0.0904,-0.22345 0.046,0.17662 0.043,0.42169 -0.007,0.54459 -0.0497,0.1229 -0.0874,-0.0216 -0.0837,-0.32114 z m 0.36306,0 c 0.003,-0.29952 0.0444,-0.40007 0.0904,-0.22345 0.046,0.17662 0.043,0.42169 -0.007,0.54459 -0.0497,0.1229 -0.0874,-0.0216 -0.0837,-0.32114 z m 22.29258,-3.08597 c 0,-1.99681 0.0674,-3.17674 0.18152,-3.17674 0.11411,0 0.18153,1.17993 0.18153,3.17674 0,1.99681 -0.0675,3.17674 -0.18153,3.17674 -0.1141,0 -0.18152,-1.17993 -0.18152,-3.17674 z m -32.291148,2.72292 c -0.0084,-0.19968 0.06387,-0.48559 0.160654,-0.63535 0.156417,-0.24203 0.176586,-0.24203 0.181528,0 0.0049,0.24204 0.02603,0.24204 0.189822,0 0.134568,-0.19886 0.15141,-0.12542 0.06245,0.27229 -0.159658,0.71377 -0.248062,0.79786 -0.270364,0.25717 l -0.01809,-0.43869 -0.145339,0.45381 c -0.119733,0.37387 -0.148037,0.38986 -0.160654,0.0908 z m 9.274688,-0.87194 c -0.12193,-0.3372 -0.523,-0.91439 -0.89128,-1.28266 -0.36828,-0.36828 -0.68832,-0.79725 -0.71122,-0.95327 -0.0229,-0.15602 0.0135,-0.22853 0.0809,-0.16114 0.0674,0.0674 0.12252,0.21102 0.12252,0.31918 0,0.10815 0.11348,0.23448 0.25218,0.28071 0.17254,0.0575 0.20629,0.005 0.10688,-0.1664 -0.2915,-0.50245 0.854,0.66792 1.19715,1.22315 0.24438,0.39542 0.30897,0.69283 0.20909,0.96282 -0.13394,0.36207 -0.16076,0.34579 -0.36621,-0.22239 z m -0.0191,-0.73186 c -0.21228,-0.34347 -0.5213,-0.73578 -0.68671,-0.87181 -0.16541,-0.13602 -0.0215,0.17026 0.31987,0.68063 0.68692,1.02709 0.97683,1.17818 0.36684,0.19118 z m -8.910621,0.48191 c -0.0015,-0.11784 0.399781,-0.6488 0.891791,-1.17994 0.51361,-0.55443 0.87652,-0.83205 0.85219,-0.6519 -0.0233,0.17257 -0.2089,0.49932 -0.41241,0.72611 -0.20351,0.22678 -0.50531,0.61431 -0.67066,0.86117 -0.18465,0.27566 -0.30171,0.3457 -0.30341,0.18153 -0.002,-0.23205 -0.026,-0.23139 -0.178752,0.005 -0.103504,0.16017 -0.177114,0.18406 -0.178749,0.058 z m 1.178561,-1.14655 0.54318,-0.63469 -0.51587,0.45316 c -0.28373,0.24924 -0.60006,0.61653 -0.70295,0.81622 -0.196932,0.38217 -0.185055,0.37101 0.67564,-0.63469 z m 0.89231,-0.84996 c 0.0458,-0.31209 0.61598,-0.69673 0.7839,-0.5288 0.0591,0.0591 -0.008,0.10865 -0.14976,0.11018 -0.20136,0.002 -0.2068,0.0347 -0.0251,0.15005 0.16918,0.10735 0.11251,0.20173 -0.20908,0.34826 -0.36657,0.16702 -0.43418,0.15355 -0.39995,-0.0797 z m 4.46136,-0.0946 c -0.2496,-0.10714 -1.02563,-0.25336 -1.72451,-0.32493 l -1.2707,-0.13014 1.17993,-0.058 1.17994,-0.058 -1.17994,-0.11886 -1.17993,-0.11886 1.08917,-0.0186 c 0.59904,-0.0102 1.25254,0.0517 1.45222,0.13744 l 0.36306,0.15601 -0.36306,0.0243 c -0.31982,0.0214 -0.31042,0.0453 0.0789,0.20085 0.24308,0.0971 0.53579,0.14056 0.65047,0.0966 0.11468,-0.044 0.20851,0.0347 0.20851,0.17497 0,0.14024 -0.007,0.24981 -0.0152,0.24348 -0.008,-0.006 -0.21935,-0.0992 -0.46895,-0.2063 z m -18.515836,-7.785 c 0,-0.88477 0.593028,-2.88887 0.854839,-2.88887 0.174978,0 0.23433,0.4368 0.23433,1.72452 v 1.72452 h -0.544584 c -0.487442,0 -0.544585,-0.0588 -0.544585,-0.56017 z m 0.726113,-0.43823 c 0,-0.2496 -0.03132,-0.45382 -0.0696,-0.45382 -0.03828,0 -0.10864,0.20422 -0.156355,0.45382 -0.04772,0.2496 -0.01639,0.45382 0.0696,0.45382 0.086,0 0.156355,-0.20422 0.156355,-0.45382 z m 6.535014,-3.08598 c 0,-0.14976 0.122532,-0.27229 0.272293,-0.27229 0.149761,0 0.272292,0.12253 0.272292,0.27229 0,0.14976 -0.122531,0.27229 -0.272292,0.27229 -0.149761,0 -0.272293,-0.12253 -0.272293,-0.27229 z m 34.532629,-1.55482 c -1.32118,-0.90507 -2.40214,-1.73171 -2.40214,-1.83698 0,-0.33038 3.8312,-5.59385 4.07168,-5.59385 0.32738,0 0.82958,0.60474 0.82958,0.99896 0,0.3093 -0.032,0.30497 -0.41663,-0.0564 l -0.41663,-0.3914 -0.30948,0.52391 c -0.25708,0.4352 -0.30948,1.01825 -0.30948,3.44316 v 2.91925 l 0.72611,0.48053 c 0.41629,0.27548 0.72611,0.62513 0.72611,0.81945 0,0.18641 -0.0218,0.33893 -0.0485,0.33893 -0.0267,0 -1.12946,-0.74051 -2.45063,-1.64558 z m 0.86536,-2.80186 c 0,-1.44769 -0.0613,-2.63228 -0.13614,-2.63244 -0.0749,-1.6e-4 -0.11153,1.18432 -0.0814,2.63216 0.0301,1.44784 0.0914,2.63244 0.13614,2.63244 0.0448,0 0.0814,-1.18447 0.0814,-2.63216 z m -0.36305,0.0568 v -2.39381 l -1.14695,1.62231 -1.14694,1.62231 1.10156,0.76093 c 0.60586,0.4185 1.12199,0.76568 1.14695,0.77149 0.025,0.005 0.0454,-1.06664 0.0454,-2.38323 z m -33.369113,1.60113 c 0.03228,-0.13644 0.589662,-1.19512 1.238626,-2.3526 1.012133,-1.80523 1.244471,-2.10489 1.633753,-2.10712 0.331602,-0.002 1.052694,0.56299 2.677544,2.09758 1.22304,1.1551 2.22372,2.21494 2.22372,2.3552 0,0.21113 -0.67402,0.25503 -3.91617,0.25503 -3.218821,0 -3.905714,-0.0442 -3.857473,-0.24809 z m 5.576603,-1.54091 c -1.83427,-1.71592 -2.70115,-2.45474 -2.773006,-2.36336 -0.0294,0.0374 -0.324982,0.5581 -0.656858,1.15714 -0.331876,0.59905 -0.802263,1.43635 -1.045303,1.86066 l -0.441894,0.7715 h 3.220671 3.22068 z m 25.47803,-11.38662 c -2.80075,-1.75331 -4.21973,-2.74482 -4.21814,-2.9474 0.003,-0.43223 1.42136,-2.93791 1.72946,-3.05614 0.40941,-0.15711 6.69921,2.21579 6.7679,2.55327 0.0757,0.37186 0.12148,0.37912 -1.5893,-0.25167 -0.80553,-0.29701 -1.46586,-0.48081 -1.46739,-0.40844 -0.001,0.0724 -0.082,0.009 -0.17875,-0.14071 -0.0968,-0.14976 -0.17597,-0.1906 -0.17597,-0.0908 0,0.0998 0.0792,0.30406 0.17597,0.45382 0.15642,0.24203 0.17659,0.24203 0.18153,0 0.005,-0.24204 0.0251,-0.24204 0.18153,0 0.0968,0.14976 0.17597,0.35398 0.17597,0.45382 0,0.0998 -0.0792,0.059 -0.17597,-0.0908 -0.15642,-0.24203 -0.17712,-0.24203 -0.18636,0 -0.005,0.14976 -0.15887,-0.006 -0.34035,-0.34714 -0.27641,-0.51889 -0.55926,-0.70376 -1.74267,-1.13904 -0.77699,-0.28579 -1.43341,-0.49717 -1.45871,-0.46974 -0.0253,0.0274 -0.345,0.59586 -0.71042,1.26318 l -0.66439,1.21331 1.05384,0.67416 c 0.57961,0.3708 1.88605,1.18859 2.90319,1.81732 1.74138,1.07641 1.85386,1.11988 1.92671,0.74468 0.0615,-0.31646 0.0869,-0.28639 0.12356,0.14613 l 0.0462,0.54458 0.13858,-0.54458 0.13857,-0.54458 0.0215,0.57329 c 0.0177,0.47185 0.16597,0.66459 0.83803,1.08917 0.4596,0.29036 0.81669,0.65474 0.81688,0.83355 1.8e-4,0.17472 -0.0201,0.31658 -0.0451,0.31524 -0.025,-0.001 -1.94462,-1.19139 -4.26591,-2.64455 z m 1.98009,-0.62053 c 0,-0.2496 0.0412,-0.35171 0.0916,-0.22691 0.0504,0.1248 0.0504,0.32902 0,0.45383 -0.0504,0.1248 -0.0916,0.0227 -0.0916,-0.22692 z m 0.36305,0 c 0,-0.2496 0.0412,-0.35171 0.0916,-0.22691 0.0504,0.1248 0.0504,0.32902 0,0.45383 -0.0504,0.1248 -0.0916,0.0227 -0.0916,-0.22692 z m -51.174224,-0.92719 c -1.143099,-0.45145 -1.860664,-0.8344 -1.860664,-0.993 0,-0.32652 -0.007,-0.32715 1.069859,0.0973 0.666248,0.26261 0.925021,0.29817 0.990794,0.13615 0.05665,-0.13956 0.09423,-0.11928 0.103354,0.0558 0.01255,0.2408 1.763308,1.0372 1.918988,0.87293 0.03066,-0.0323 0.545937,-1.32498 1.145064,-2.87251 0.599127,-1.54753 1.258334,-3.23926 1.464905,-3.75941 0.233032,-0.586781 0.307076,-0.988067 0.195083,-1.057282 -0.09927,-0.06136 -0.158054,-0.02968 -0.13062,0.07039 0.02744,0.100067 -0.399403,0.692152 -0.948525,1.315732 -0.549123,0.62359 -1.21859,1.46133 -1.487703,1.86165 -0.507797,0.75536 -1.226723,1.14225 -0.864346,0.46514 0.101503,-0.18966 0.274011,-0.32522 0.38335,-0.30126 0.10934,0.024 0.24003,-0.0699 0.290422,-0.2086 0.06245,-0.17187 0.01545,-0.2051 -0.147569,-0.10435 -0.131556,0.0813 0.02492,-0.21994 0.347716,-0.66943 0.663884,-0.92444 7.563081,-7.86892 7.817611,-7.86892 0.0909,0 0.233352,-0.07436 0.316552,-0.16525 0.08679,-0.09481 0.06117,-0.113675 -0.06014,-0.04425 -0.116273,0.06655 -0.238805,0.04745 -0.272292,-0.04244 -0.03349,-0.08989 -2.631474,-1.376979 -5.773304,-2.8602 -4.558899,-2.152204 -5.601621,-2.707717 -5.163736,-2.750997 0.404427,-0.03997 2.311944,0.780711 7.255407,3.121545 6.162607,2.918124 6.706726,3.212271 6.706726,3.625612 0,0.334161 -0.646716,1.106902 -2.514948,3.005031 -1.383221,1.405357 -2.644123,2.555199 -2.802004,2.555199 -0.157881,0 -0.66942,-0.32242 -1.136751,-0.716478 l -0.849695,-0.716472 -1.689757,4.34704 c -1.457178,3.7487 -1.741604,4.34629 -2.066439,4.34163 -0.207175,-0.003 -1.21398,-0.33609 -2.237346,-0.74026 z m 3.659888,-6.06164 1.220979,-1.452225 -1.118114,1.177225 c -0.614963,0.64747 -1.203463,1.34182 -1.30778,1.54299 -0.232436,0.44824 -0.281003,0.49935 1.204915,-1.26799 z m 6.103458,-2.768305 c 0.948153,-0.973444 2.043723,-2.11519 2.4346,-2.537212 l 0.710686,-0.767312 -0.98578,-0.439695 c -0.970284,-0.432783 -0.991671,-0.434276 -1.360536,-0.09495 -0.470292,0.432636 -0.746855,0.45003 -0.430476,0.02707 0.130695,-0.17472 -0.716291,0.619672 -1.882192,1.765317 l -2.119818,2.08299 0.853808,0.866842 c 0.469594,0.476764 0.899255,0.866842 0.954802,0.866842 0.05555,0 0.876754,-0.796454 1.824906,-1.769899 z M 86.848277,96.40496 c 0.994659,-0.998405 1.849315,-1.815282 1.899235,-1.815282 0.04992,0 -0.723047,0.816877 -1.717706,1.815282 -0.994659,0.998404 -1.849314,1.815281 -1.899234,1.815281 -0.04992,0 0.723047,-0.816877 1.717705,-1.815281 z m -2.632158,2.722922 c 0,-0.09984 -0.03602,-0.181528 -0.08005,-0.181528 -0.04403,0 -0.130536,0.08169 -0.192241,0.181528 -0.06171,0.09984 -0.02568,0.181528 0.08005,0.181528 0.105733,0 0.192241,-0.08169 0.192241,-0.181528 z m 44.972171,7.238018 c -0.16808,-0.52562 -0.26716,-0.99412 -0.22016,-1.04112 0.047,-0.047 0.0867,0.0303 0.0882,0.17172 0.002,0.21488 0.0286,0.21638 0.15992,0.009 0.11143,-0.17589 0.24801,0.0255 0.46953,0.69249 0.17182,0.5173 0.26323,0.9897 0.20314,1.0498 -0.0601,0.0601 -0.115,-0.0473 -0.12202,-0.23867 -0.012,-0.3272 -0.0205,-0.32826 -0.14289,-0.0178 -0.0993,0.25195 -0.20251,0.1038 -0.43575,-0.62554 z m 0.30614,-0.23622 c -0.0667,-0.26603 -0.1564,-0.44868 -0.1992,-0.40589 -0.0428,0.0428 -0.0232,0.29546 0.0436,0.56149 0.0668,0.26603 0.15641,0.44868 0.1992,0.4059 0.0428,-0.0428 0.0232,-0.29546 -0.0436,-0.5615 z m -50.35554,-0.376 c 0,-0.0998 0.07918,-0.30406 0.175968,-0.45382 0.156417,-0.24204 0.176587,-0.24204 0.181529,0 0.0049,0.24204 0.02511,0.24204 0.181528,0 0.09678,-0.14976 0.175968,-0.1906 0.175968,-0.0908 0,0.0998 -0.07919,0.30406 -0.175968,0.45382 -0.156417,0.24203 -0.176587,0.24203 -0.181528,0 -0.0049,-0.24204 -0.02511,-0.24204 -0.181529,0 -0.09678,0.14976 -0.175968,0.1906 -0.175968,0.0908 z m 0.366709,-0.90764 c 0.0073,-0.36308 0.498164,-1.06242 0.774127,-1.10292 0.252027,-0.037 0.25001,0.0277 -0.0184,0.59059 -0.165792,0.34767 -0.333929,0.53466 -0.373636,0.41554 -0.05245,-0.15735 -0.11507,-0.14891 -0.228969,0.0309 -0.08623,0.1361 -0.155131,0.16576 -0.153122,0.0659 z m 0.711341,-0.90764 c 0,-0.0998 -0.07919,-0.059 -0.175969,0.0908 -0.09678,0.14976 -0.175969,0.35398 -0.175969,0.45382 0,0.0998 0.07919,0.059 0.175969,-0.0908 0.09678,-0.14976 0.175969,-0.35398 0.175969,-0.45382 z m -2.762746,-2.73362 c -0.290247,-0.15884 -0.499202,-0.42703 -0.499202,-0.64071 0,-0.35798 0.014,-0.35926 0.539,-0.0491 0.296449,0.17512 0.569022,0.28185 0.605716,0.23718 0.169451,-0.20629 3.393488,-6.562004 3.393488,-6.68976 0,-0.142567 -2.440626,-1.28794 -2.744416,-1.28794 -0.08586,0 -0.520459,0.714767 -0.965765,1.588371 -0.721385,1.415218 -0.810649,1.523564 -0.818835,0.993873 -0.0071,-0.461786 1.001272,-2.885537 1.367739,-3.287416 0.03502,-0.0384 0.845368,0.247505 1.800777,0.635349 1.351829,0.548769 1.760432,0.79708 1.84227,1.119564 0.076,0.299486 -0.400482,1.406866 -1.718373,3.993619 -1.002945,1.968575 -1.93146,3.59745 -2.063366,3.61971 -0.131907,0.0223 -0.464471,-0.0824 -0.739033,-0.2327 z m 52.904586,-3.810763 c -1.70945,-1.144484 -1.66267,-0.889687 -0.58989,-3.21294 l 0.68916,-1.492474 -4.34722,-2.271577 c -3.4766,-1.816646 -4.24437,-2.282167 -3.8336,-2.324455 0.36827,-0.03791 1.6608,0.546581 4.5672,2.065318 2.22946,1.165007 4.09092,2.215526 4.13657,2.334486 0.0456,0.11896 -0.24681,0.933563 -0.64992,1.81023 -0.40311,0.876667 -0.73292,1.670452 -0.73292,1.763966 0,0.09352 0.53098,0.502945 1.17994,0.909843 0.77445,0.485583 1.17993,0.85761 1.17993,1.082596 0,0.188529 -0.0211,0.34278 -0.047,0.34278 -0.0259,0 -0.72436,-0.453498 -1.55225,-1.007773 z M 90.660369,90.140341 c -3.271936,-1.703819 -3.882896,-2.080172 -3.380904,-2.082642 0.42608,-0.0021 1.678225,0.550516 4.11074,1.814201 l 3.498024,1.817215 3.0582,-0.682664 3.058201,-0.682664 -1.723095,-0.106532 -1.723095,-0.106533 2.087574,-0.01931 c 3.133956,-0.02898 3.285356,-0.102862 0.453816,-0.221451 l -2.54139,-0.106437 3.1433,-0.03754 c 1.74252,-0.02082 3.29989,-0.121359 3.49471,-0.225621 0.19328,-0.103441 0.46966,-0.471036 0.61415,-0.816877 0.14451,-0.345841 0.38943,-0.628802 0.54429,-0.628802 0.36216,0 0.34927,0.104238 -0.13437,1.087235 l -0.40095,0.814943 -4.44744,1.034795 c -2.446095,0.569137 -4.73335,1.078336 -5.082792,1.131553 -0.549435,0.08367 -1.175379,-0.184455 -4.628969,-1.982869 z m 3.206905,0.841276 c -0.191911,-0.121652 -0.177109,-0.178437 0.07136,-0.273785 0.172422,-0.06617 0.356261,-0.07753 0.408531,-0.02526 0.05227,0.05227 -0.02069,0.09629 -0.162128,0.09782 -0.211745,0.0023 -0.209074,0.03386 0.01513,0.178748 0.14976,0.09678 0.190604,0.175969 0.09076,0.175969 -0.09984,0 -0.290488,-0.06907 -0.423659,-0.153487 z m 1.512828,-0.385538 0.363056,-0.156011 -0.363056,-0.02427 c -0.328577,-0.02196 -0.322834,-0.04038 0.06047,-0.19402 0.23294,-0.09336 0.76391,-0.115057 1.179933,-0.0482 l 0.756405,0.121547 -0.998404,0.23355 c -1.144011,0.26761 -1.524011,0.293265 -0.998405,0.0674 z m 0.862259,-0.301751 c -0.124801,-0.05036 -0.32902,-0.05036 -0.453821,0 -0.1248,0.05036 -0.02269,0.09156 0.22691,0.09156 0.249602,0 0.351712,-0.0412 0.226911,-0.09156 z m 16.258119,0.177746 c 0.13104,-0.05244 0.28761,-0.04599 0.34793,0.01433 0.0603,0.06032 -0.0469,0.103223 -0.23826,0.09534 -0.21147,-0.0087 -0.25448,-0.05173 -0.10967,-0.109675 z m -1.0063,-0.183321 c 0.17662,-0.04602 0.42169,-0.043 0.54459,0.0067 0.1229,0.04972 -0.0216,0.08738 -0.32113,0.08368 -0.29952,-0.0037 -0.40008,-0.04438 -0.22346,-0.09041 z m 1.0063,-0.179735 c 0.13104,-0.05244 0.28761,-0.04599 0.34793,0.01433 0.0603,0.06032 -0.0469,0.103224 -0.23826,0.09534 -0.21147,-0.0087 -0.25448,-0.05173 -0.10967,-0.109673 z M 96.696181,89.931272 c 0.124801,-0.05036 0.32902,-0.05036 0.453821,0 0.1248,0.05036 0.02269,0.09156 -0.22691,0.09156 -0.249602,0 -0.351711,-0.0412 -0.226911,-0.09156 z m 14.797999,-0.0056 c 0.17662,-0.04602 0.42169,-0.043 0.54459,0.0067 0.1229,0.04973 -0.0216,0.08738 -0.32113,0.08368 -0.29952,-0.0037 -0.40008,-0.04438 -0.22346,-0.09041 z m 19.19315,-1.326429 c -0.98288,-0.519256 -0.98909,-0.527589 -0.39942,-0.53602 0.72971,-0.01044 1.67012,0.447333 1.67012,0.812975 0,0.359992 -0.11072,0.335858 -1.2707,-0.276955 z"
       id="path1" /></g></svg>
