%TF.GenerationSoftware,KiCad,Pcbnew,9.0.6*%
%TF.CreationDate,2026-03-26T20:51:45+00:00*%
%TF.ProjectId,GPS_PCB,4750535f-5043-4422-9e6b-696361645f70,rev?*%
%TF.SameCoordinates,Original*%
%TF.FileFunction,Copper,L2,Bot*%
%TF.FilePolarity,Positive*%
%FSLAX46Y46*%
G04 Gerber Fmt 4.6, Leading zero omitted, Abs format (unit mm)*
G04 Created by KiCad (PCBNEW 9.0.6) date 2026-03-26 20:51:45*
%MOMM*%
%LPD*%
G01*
G04 APERTURE LIST*
%TA.AperFunction,ViaPad*%
%ADD10C,0.600000*%
%TD*%
%TA.AperFunction,ViaPad*%
%ADD11C,1.000000*%
%TD*%
%TA.AperFunction,ViaPad*%
%ADD12C,2.000000*%
%TD*%
%TA.AperFunction,Conductor*%
%ADD13C,0.200000*%
%TD*%
%TA.AperFunction,Conductor*%
%ADD14C,0.400000*%
%TD*%
G04 APERTURE END LIST*
D10*
%TO.N,GND*%
X143000000Y-105500000D03*
X135500000Y-106750000D03*
X164750000Y-98000000D03*
X156500000Y-106000000D03*
X154000000Y-106000000D03*
X151500000Y-106000000D03*
%TO.N,GPS_TX*%
X159438965Y-102938965D03*
%TO.N,GPS_RX*%
X160375000Y-102875000D03*
%TO.N,GPS_TX*%
X149750000Y-104250000D03*
%TO.N,GPS_RX*%
X149750000Y-105750000D03*
%TO.N,Reset*%
X158250000Y-106250000D03*
X133500000Y-102000000D03*
%TO.N,+3.3V*%
X156000000Y-98000000D03*
%TO.N,Net-(U26-V_BCKP)*%
X156250000Y-97000000D03*
%TO.N,+3.3V*%
X150000000Y-98250000D03*
%TO.N,Net-(U26-V_BCKP)*%
X149250000Y-97000000D03*
D11*
%TO.N,GND*%
X132500000Y-117500000D03*
X137500000Y-117500000D03*
X142500000Y-117500000D03*
X147500000Y-117500000D03*
X152500000Y-117500000D03*
X157500000Y-117500000D03*
X162500000Y-127500000D03*
X162500000Y-122500000D03*
X162500000Y-117500000D03*
X162500000Y-112500000D03*
X157500000Y-112500000D03*
X162500000Y-107500000D03*
X162500000Y-92500000D03*
X157500000Y-92500000D03*
X152500000Y-92500000D03*
X152500000Y-102500000D03*
X152500000Y-112500000D03*
X147500000Y-112500000D03*
X142500000Y-112500000D03*
X137500000Y-112500000D03*
X132500000Y-112500000D03*
X127500000Y-112500000D03*
X127500000Y-107500000D03*
X127500000Y-102500000D03*
X127500000Y-97500000D03*
X127500000Y-92500000D03*
X127500000Y-87500000D03*
X132500000Y-87500000D03*
X137500000Y-87500000D03*
X142500000Y-87500000D03*
X147500000Y-87500000D03*
X152500000Y-87500000D03*
X152500000Y-82500000D03*
X147500000Y-82500000D03*
X142500000Y-82500000D03*
X137500000Y-82500000D03*
X132500000Y-82500000D03*
X127500000Y-82500000D03*
X127500000Y-77500000D03*
X132500000Y-77500000D03*
X137500000Y-77500000D03*
X142500000Y-77500000D03*
X147500000Y-77500000D03*
X152500000Y-77500000D03*
X157500000Y-77500000D03*
X157500000Y-82500000D03*
X157500000Y-87500000D03*
X162500000Y-87500000D03*
X162500000Y-82500000D03*
X162500000Y-77500000D03*
X137500000Y-52500000D03*
X142500000Y-52500000D03*
X147500000Y-52500000D03*
X147500000Y-62500000D03*
X152500000Y-62500000D03*
X157500000Y-62500000D03*
X152500000Y-57500000D03*
X147500000Y-57500000D03*
X142500000Y-57500000D03*
X137500000Y-57500000D03*
X137500000Y-62500000D03*
X142500000Y-62500000D03*
X142500000Y-67500000D03*
X147500000Y-67500000D03*
X152500000Y-67500000D03*
X157500000Y-67500000D03*
X162500000Y-67500000D03*
X162500000Y-72500000D03*
X157500000Y-72500000D03*
X152500000Y-72500000D03*
X147500000Y-72500000D03*
X142500000Y-72500000D03*
X137500000Y-72500000D03*
X137500000Y-67500000D03*
X132500000Y-67500000D03*
X132500000Y-72500000D03*
X127500000Y-72500000D03*
X127500000Y-67500000D03*
X127500000Y-62500000D03*
X132500000Y-62500000D03*
X132500000Y-57500000D03*
X132500000Y-52500000D03*
X127500000Y-57500000D03*
X122500000Y-62500000D03*
X117500000Y-67500000D03*
X122500000Y-67500000D03*
X122500000Y-72500000D03*
X117500000Y-72500000D03*
X117500000Y-77500000D03*
X122500000Y-77500000D03*
X122500000Y-82500000D03*
X117500000Y-82500000D03*
X117500000Y-87500000D03*
X122500000Y-87500000D03*
X122500000Y-92500000D03*
X117500000Y-92500000D03*
X117500000Y-97500000D03*
X122500000Y-97500000D03*
X122500000Y-102500000D03*
X117500000Y-102500000D03*
X117500000Y-107500000D03*
X122500000Y-107500000D03*
X122500000Y-112500000D03*
X117500000Y-112500000D03*
X117500000Y-117500000D03*
X117500000Y-122500000D03*
X117500000Y-127500000D03*
X117500000Y-132500000D03*
X117500000Y-147500000D03*
X117500000Y-142500000D03*
X117500000Y-137500000D03*
X127500000Y-142500000D03*
X122500000Y-142500000D03*
X122500000Y-147500000D03*
X127500000Y-147500000D03*
X162500000Y-132500000D03*
X162500000Y-147500000D03*
X162500000Y-142500000D03*
X157500000Y-142500000D03*
X157500000Y-147500000D03*
X152500000Y-147500000D03*
X132500000Y-147500000D03*
X137500000Y-147500000D03*
X142500000Y-147500000D03*
X147500000Y-147500000D03*
X147500000Y-142500000D03*
X142500000Y-142500000D03*
X137500000Y-142500000D03*
X132500000Y-142500000D03*
X132500000Y-137500000D03*
X137500000Y-137500000D03*
X142500000Y-137500000D03*
X147500000Y-137500000D03*
X157500000Y-137500000D03*
X157500000Y-132500000D03*
X152500000Y-132500000D03*
X147500000Y-132500000D03*
X142500000Y-132500000D03*
X137500000Y-132500000D03*
X132500000Y-132500000D03*
X127500000Y-132500000D03*
X122500000Y-137500000D03*
X122500000Y-132500000D03*
X122500000Y-127500000D03*
X127500000Y-127500000D03*
X132500000Y-127500000D03*
X137500000Y-127500000D03*
X142500000Y-127500000D03*
X147500000Y-127500000D03*
X152500000Y-127500000D03*
X157500000Y-127500000D03*
X157500000Y-122500000D03*
X152500000Y-122500000D03*
X147500000Y-122500000D03*
X142500000Y-122500000D03*
X137500000Y-122500000D03*
X132500000Y-122500000D03*
X127500000Y-122500000D03*
X122500000Y-122500000D03*
X122500000Y-117500000D03*
D12*
X150000000Y-140000000D03*
X140000000Y-140000000D03*
X130000000Y-140000000D03*
X135000000Y-135000000D03*
X145000000Y-135000000D03*
X155000000Y-135000000D03*
X150000000Y-130000000D03*
X155000000Y-125000000D03*
X145000000Y-125000000D03*
X140000000Y-130000000D03*
X135000000Y-125000000D03*
X125000000Y-125000000D03*
X125000000Y-135000000D03*
X130000000Y-130000000D03*
X145000000Y-105000000D03*
X145000000Y-95000000D03*
X135000000Y-95000000D03*
X130000000Y-90000000D03*
X150000000Y-90000000D03*
X150000000Y-110000000D03*
X130000000Y-110000000D03*
X155000000Y-75000000D03*
X145000000Y-75000000D03*
X135000000Y-65000000D03*
X140000000Y-70000000D03*
X145000000Y-65000000D03*
X150000000Y-70000000D03*
X155000000Y-65000000D03*
X150000000Y-60000000D03*
X140000000Y-60000000D03*
X130000000Y-60000000D03*
X125000000Y-65000000D03*
X130000000Y-70000000D03*
X135000000Y-75000000D03*
X125000000Y-75000000D03*
X145000000Y-140000000D03*
X135000000Y-140000000D03*
X130000000Y-135000000D03*
X140000000Y-135000000D03*
X150000000Y-135000000D03*
X145000000Y-130000000D03*
X135000000Y-130000000D03*
X125000000Y-130000000D03*
X130000000Y-125000000D03*
X140000000Y-125000000D03*
X155000000Y-130000000D03*
X150000000Y-125000000D03*
X160000000Y-125000000D03*
X160000000Y-130000000D03*
X160000000Y-135000000D03*
X160000000Y-145000000D03*
X155000000Y-145000000D03*
X150000000Y-145000000D03*
X145000000Y-145000000D03*
X135000000Y-145000000D03*
X140000000Y-145000000D03*
X130000000Y-145000000D03*
X125000000Y-145000000D03*
X120000000Y-145000000D03*
X120000000Y-140000000D03*
X120000000Y-135000000D03*
X120000000Y-130000000D03*
X120000000Y-125000000D03*
X155000000Y-95000000D03*
X145000000Y-90000000D03*
X140000000Y-90000000D03*
X135000000Y-90000000D03*
X130000000Y-95000000D03*
X130000000Y-100000000D03*
X130000000Y-105000000D03*
X145000000Y-110000000D03*
X140000000Y-110000000D03*
X135000000Y-110000000D03*
X130000000Y-115000000D03*
X135000000Y-115000000D03*
X140000000Y-115000000D03*
X145000000Y-115000000D03*
X150000000Y-115000000D03*
X155000000Y-110000000D03*
X155000000Y-90000000D03*
X150000000Y-85000000D03*
X145000000Y-85000000D03*
X140000000Y-85000000D03*
X135000000Y-85000000D03*
X130000000Y-85000000D03*
X125000000Y-90000000D03*
X125000000Y-95000000D03*
X125000000Y-100000000D03*
X125000000Y-110000000D03*
X125000000Y-105000000D03*
X150000000Y-55000000D03*
X145000000Y-55000000D03*
X130000000Y-55000000D03*
X135000000Y-55000000D03*
X140000000Y-55000000D03*
X150000000Y-65000000D03*
X130000000Y-65000000D03*
X140000000Y-75000000D03*
X150000000Y-75000000D03*
X145000000Y-70000000D03*
X140000000Y-65000000D03*
X135000000Y-70000000D03*
X130000000Y-75000000D03*
X120000000Y-65000000D03*
X120000000Y-70000000D03*
X120000000Y-75000000D03*
X160000000Y-65000000D03*
X160000000Y-70000000D03*
X160000000Y-75000000D03*
X155000000Y-70000000D03*
X155000000Y-60000000D03*
X145000000Y-60000000D03*
X135000000Y-60000000D03*
X125000000Y-60000000D03*
X125000000Y-70000000D03*
X160000000Y-90000000D03*
X160000000Y-85000000D03*
X160000000Y-80000000D03*
X155000000Y-80000000D03*
X145000000Y-80000000D03*
X150000000Y-80000000D03*
X135000000Y-80000000D03*
X140000000Y-80000000D03*
X130000000Y-80000000D03*
X125000000Y-80000000D03*
X120000000Y-80000000D03*
X120000000Y-85000000D03*
X120000000Y-90000000D03*
X120000000Y-95000000D03*
X120000000Y-100000000D03*
X120000000Y-105000000D03*
X120000000Y-110000000D03*
X160000000Y-110000000D03*
X160000000Y-115000000D03*
X160000000Y-120000000D03*
X155000000Y-120000000D03*
X150000000Y-120000000D03*
X145000000Y-120000000D03*
X140000000Y-120000000D03*
X135000000Y-120000000D03*
X130000000Y-120000000D03*
X125000000Y-120000000D03*
X120000000Y-120000000D03*
X120000000Y-115000000D03*
D10*
X154000000Y-86000000D03*
X154750000Y-87500000D03*
X154750000Y-86750000D03*
X154750000Y-86000000D03*
X152500000Y-85250000D03*
X153250000Y-85250000D03*
X154000000Y-85250000D03*
X154750000Y-85250000D03*
X126000000Y-86000000D03*
X127500000Y-85250000D03*
X126750000Y-85250000D03*
X126000000Y-85250000D03*
X125250000Y-87500000D03*
X125250000Y-86750000D03*
X125250000Y-86000000D03*
X125250000Y-85250000D03*
X127500000Y-114750000D03*
X126000000Y-114000000D03*
X125250000Y-112500000D03*
X125250000Y-113250000D03*
X125250000Y-114000000D03*
X126750000Y-114750000D03*
X126000000Y-114750000D03*
X125250000Y-114750000D03*
X154750000Y-112500000D03*
X152500000Y-114750000D03*
X153250000Y-114750000D03*
X154750000Y-113250000D03*
X154750000Y-114000000D03*
X154000000Y-114000000D03*
X154000000Y-114750000D03*
X154750000Y-114750000D03*
X162000000Y-101500000D03*
X162000000Y-96000000D03*
X159750000Y-96750000D03*
%TO.N,+3.3V*%
X160250000Y-97750000D03*
X161250000Y-103000000D03*
%TO.N,Net-(U26-V_BCKP)*%
X160750000Y-96500000D03*
X164250000Y-105000000D03*
%TD*%
D13*
%TO.N,GPS_RX*%
X158000000Y-105250000D02*
X160375000Y-102875000D01*
X149750000Y-105750000D02*
X150250000Y-105250000D01*
X150250000Y-105250000D02*
X158000000Y-105250000D01*
%TO.N,GPS_TX*%
X157777933Y-104599997D02*
X159438965Y-102938965D01*
X150099997Y-104599997D02*
X157777933Y-104599997D01*
X149750000Y-104250000D02*
X150099997Y-104599997D01*
%TO.N,+3.3V*%
X161250000Y-98750000D02*
X160250000Y-97750000D01*
X161250000Y-103000000D02*
X161250000Y-98750000D01*
%TO.N,Reset*%
X157750000Y-106750000D02*
X158250000Y-106250000D01*
X138250000Y-106750000D02*
X157000000Y-106750000D01*
X133500000Y-102000000D02*
X138250000Y-106750000D01*
X157000000Y-106750000D02*
X157750000Y-106750000D01*
D14*
%TO.N,+3.3V*%
X154750000Y-97601000D02*
X155601000Y-97601000D01*
X155601000Y-97601000D02*
X156000000Y-98000000D01*
X150649000Y-97601000D02*
X154750000Y-97601000D01*
X150000000Y-98250000D02*
X150649000Y-97601000D01*
%TO.N,Net-(U26-V_BCKP)*%
X149250000Y-97000000D02*
X156250000Y-97000000D01*
X164250000Y-100000000D02*
X160750000Y-96500000D01*
X164250000Y-105000000D02*
X164250000Y-100000000D01*
%TD*%
%TA.AperFunction,Conductor*%
%TO.N,GND*%
G36*
X157385023Y-105856836D02*
G01*
X157407444Y-105858569D01*
X157417899Y-105866489D01*
X157430484Y-105870185D01*
X157445208Y-105887178D01*
X157463137Y-105900760D01*
X157467651Y-105913078D01*
X157476239Y-105922989D01*
X157479439Y-105945245D01*
X157487178Y-105966363D01*
X157485533Y-105987632D01*
X157486183Y-105992147D01*
X157484794Y-105997194D01*
X157484458Y-106001552D01*
X157482115Y-106012030D01*
X157480263Y-106016503D01*
X157473377Y-106051117D01*
X157473057Y-106052552D01*
X157456811Y-106081902D01*
X157441276Y-106111602D01*
X157439957Y-106112353D01*
X157439221Y-106113683D01*
X157409686Y-106129590D01*
X157380561Y-106146176D01*
X157379044Y-106146094D01*
X157377707Y-106146815D01*
X157352044Y-106149500D01*
X150636555Y-106149500D01*
X150569516Y-106129815D01*
X150523761Y-106077011D01*
X150513817Y-106007853D01*
X150518840Y-105989588D01*
X150517969Y-105989324D01*
X150519731Y-105983509D01*
X150519737Y-105983497D01*
X150526339Y-105950309D01*
X150558724Y-105888398D01*
X150619439Y-105853824D01*
X150647956Y-105850500D01*
X157363445Y-105850500D01*
X157385023Y-105856836D01*
G37*
%TD.AperFunction*%
%TA.AperFunction,Conductor*%
G36*
X144988304Y-50050537D02*
G01*
X145695237Y-50067890D01*
X145701278Y-50068188D01*
X146404994Y-50120097D01*
X146411002Y-50120689D01*
X147111310Y-50207064D01*
X147117300Y-50207952D01*
X147812527Y-50328585D01*
X147818442Y-50329761D01*
X148506949Y-50484371D01*
X148512804Y-50485838D01*
X149192850Y-50674032D01*
X149198629Y-50675784D01*
X149868670Y-50897135D01*
X149874371Y-50899176D01*
X150532684Y-51153115D01*
X150538286Y-51155435D01*
X151183345Y-51441370D01*
X151188847Y-51443972D01*
X151819091Y-51761210D01*
X151824458Y-51764079D01*
X152438384Y-52111864D01*
X152443587Y-52114982D01*
X153039716Y-52492476D01*
X153044776Y-52495857D01*
X153621651Y-52902138D01*
X153626540Y-52905764D01*
X154182802Y-53339874D01*
X154187482Y-53343716D01*
X154472404Y-53589491D01*
X154721754Y-53804582D01*
X154726264Y-53808669D01*
X155238323Y-54296189D01*
X155240501Y-54298315D01*
X161451601Y-60509415D01*
X161453727Y-60511593D01*
X161941327Y-61023736D01*
X161945414Y-61028246D01*
X162406270Y-61562506D01*
X162410131Y-61567210D01*
X162844232Y-62123460D01*
X162847858Y-62128349D01*
X163254139Y-62705224D01*
X163257520Y-62710284D01*
X163635008Y-63306403D01*
X163638137Y-63311624D01*
X163985913Y-63925533D01*
X163988782Y-63930900D01*
X164306024Y-64561153D01*
X164308626Y-64566655D01*
X164594556Y-65211704D01*
X164596885Y-65217327D01*
X164850822Y-65875633D01*
X164852864Y-65881341D01*
X164858869Y-65899515D01*
X165074199Y-66551330D01*
X165075965Y-66557153D01*
X165264152Y-67237170D01*
X165265631Y-67243074D01*
X165420229Y-67931530D01*
X165421416Y-67937500D01*
X165542041Y-68632685D01*
X165542934Y-68638705D01*
X165629304Y-69338973D01*
X165629901Y-69345030D01*
X165681807Y-70048702D01*
X165682106Y-70054781D01*
X165690156Y-70382687D01*
X165697879Y-70697311D01*
X165699463Y-70761804D01*
X165699500Y-70764847D01*
X165699500Y-145447293D01*
X165699382Y-145452702D01*
X165682614Y-145836750D01*
X165681671Y-145847526D01*
X165631849Y-146225957D01*
X165629971Y-146236610D01*
X165547354Y-146609272D01*
X165544554Y-146619721D01*
X165429775Y-146983755D01*
X165426075Y-146993921D01*
X165280002Y-147346572D01*
X165275430Y-147356376D01*
X165099183Y-147694942D01*
X165093775Y-147704310D01*
X164888681Y-148026244D01*
X164882476Y-148035105D01*
X164650110Y-148337930D01*
X164643156Y-148346217D01*
X164385284Y-148627635D01*
X164377635Y-148635284D01*
X164096217Y-148893156D01*
X164087930Y-148900110D01*
X163785105Y-149132476D01*
X163776244Y-149138681D01*
X163454310Y-149343775D01*
X163444942Y-149349183D01*
X163106376Y-149525430D01*
X163096572Y-149530002D01*
X162743921Y-149676075D01*
X162733755Y-149679775D01*
X162369721Y-149794554D01*
X162359272Y-149797354D01*
X161986610Y-149879971D01*
X161975957Y-149881849D01*
X161597526Y-149931671D01*
X161586750Y-149932614D01*
X161202703Y-149949382D01*
X161197294Y-149949500D01*
X118802706Y-149949500D01*
X118797297Y-149949382D01*
X118413249Y-149932614D01*
X118402473Y-149931671D01*
X118024042Y-149881849D01*
X118013389Y-149879971D01*
X117640727Y-149797354D01*
X117630278Y-149794554D01*
X117266244Y-149679775D01*
X117256078Y-149676075D01*
X116903427Y-149530002D01*
X116893623Y-149525430D01*
X116555057Y-149349183D01*
X116545689Y-149343775D01*
X116223755Y-149138681D01*
X116214894Y-149132476D01*
X115912069Y-148900110D01*
X115903782Y-148893156D01*
X115622364Y-148635284D01*
X115614715Y-148627635D01*
X115356843Y-148346217D01*
X115349889Y-148337930D01*
X115117523Y-148035105D01*
X115111318Y-148026244D01*
X114906224Y-147704310D01*
X114900816Y-147694942D01*
X114724569Y-147356376D01*
X114719997Y-147346572D01*
X114573924Y-146993921D01*
X114570224Y-146983755D01*
X114455442Y-146619710D01*
X114452648Y-146609284D01*
X114370025Y-146236597D01*
X114368152Y-146225971D01*
X114318326Y-145847506D01*
X114317386Y-145836771D01*
X114300618Y-145452702D01*
X114300500Y-145447293D01*
X114300500Y-101921153D01*
X132699500Y-101921153D01*
X132699500Y-102078846D01*
X132730261Y-102233489D01*
X132730264Y-102233501D01*
X132790602Y-102379172D01*
X132790609Y-102379185D01*
X132878210Y-102510288D01*
X132878213Y-102510292D01*
X132989707Y-102621786D01*
X132989711Y-102621789D01*
X133120814Y-102709390D01*
X133120827Y-102709397D01*
X133192591Y-102739122D01*
X133266503Y-102769737D01*
X133331147Y-102782595D01*
X133421849Y-102800638D01*
X133483760Y-102833023D01*
X133485339Y-102834574D01*
X137765139Y-107114374D01*
X137765149Y-107114385D01*
X137769479Y-107118715D01*
X137769480Y-107118716D01*
X137881284Y-107230520D01*
X137881286Y-107230521D01*
X137881290Y-107230524D01*
X138018209Y-107309573D01*
X138018216Y-107309577D01*
X138130019Y-107339534D01*
X138170942Y-107350500D01*
X138170943Y-107350500D01*
X156920943Y-107350500D01*
X157663331Y-107350500D01*
X157663347Y-107350501D01*
X157670943Y-107350501D01*
X157829054Y-107350501D01*
X157829057Y-107350501D01*
X157981785Y-107309577D01*
X158031904Y-107280639D01*
X158118716Y-107230520D01*
X158230520Y-107118716D01*
X158230521Y-107118714D01*
X158264662Y-107084572D01*
X158325983Y-107051089D01*
X158328150Y-107050638D01*
X158386085Y-107039113D01*
X158483497Y-107019737D01*
X158629179Y-106959394D01*
X158760289Y-106871789D01*
X158871789Y-106760289D01*
X158959394Y-106629179D01*
X159019737Y-106483497D01*
X159050500Y-106328842D01*
X159050500Y-106171158D01*
X159050500Y-106171155D01*
X159050499Y-106171153D01*
X159042276Y-106129815D01*
X159019737Y-106016503D01*
X159011739Y-105997194D01*
X158959397Y-105870827D01*
X158959390Y-105870814D01*
X158871789Y-105739711D01*
X158871786Y-105739707D01*
X158760292Y-105628213D01*
X158760284Y-105628207D01*
X158712517Y-105596290D01*
X158667711Y-105542678D01*
X158659004Y-105473353D01*
X158689158Y-105410326D01*
X158693706Y-105405527D01*
X160389662Y-103709572D01*
X160404224Y-103701326D01*
X160414578Y-103690312D01*
X160442293Y-103679767D01*
X160447249Y-103676962D01*
X160453093Y-103675500D01*
X160453842Y-103675500D01*
X160608497Y-103644737D01*
X160657938Y-103624257D01*
X160666824Y-103622035D01*
X160692941Y-103623092D01*
X160718930Y-103620298D01*
X160729519Y-103624573D01*
X160736637Y-103624862D01*
X160745324Y-103630955D01*
X160765807Y-103639226D01*
X160870814Y-103709390D01*
X160870827Y-103709397D01*
X160944013Y-103739711D01*
X161016503Y-103769737D01*
X161171153Y-103800499D01*
X161171156Y-103800500D01*
X161171158Y-103800500D01*
X161328844Y-103800500D01*
X161328845Y-103800499D01*
X161483497Y-103769737D01*
X161596166Y-103723067D01*
X161629172Y-103709397D01*
X161629172Y-103709396D01*
X161629179Y-103709394D01*
X161760289Y-103621789D01*
X161871789Y-103510289D01*
X161959394Y-103379179D01*
X162019737Y-103233497D01*
X162050500Y-103078842D01*
X162050500Y-102921158D01*
X162050500Y-102921155D01*
X162050499Y-102921153D01*
X162019738Y-102766510D01*
X162019737Y-102766503D01*
X161959794Y-102621786D01*
X161959397Y-102620827D01*
X161959390Y-102620814D01*
X161871398Y-102489125D01*
X161850520Y-102422447D01*
X161850500Y-102420234D01*
X161850500Y-98890518D01*
X161870185Y-98823479D01*
X161922989Y-98777724D01*
X161992147Y-98767780D01*
X162055703Y-98796805D01*
X162062168Y-98802825D01*
X162715230Y-99455886D01*
X163513181Y-100253837D01*
X163546666Y-100315160D01*
X163549500Y-100341518D01*
X163549500Y-104574684D01*
X163540061Y-104622136D01*
X163480264Y-104766498D01*
X163480261Y-104766510D01*
X163449500Y-104921153D01*
X163449500Y-105078846D01*
X163480261Y-105233489D01*
X163480264Y-105233501D01*
X163540602Y-105379172D01*
X163540609Y-105379185D01*
X163628210Y-105510288D01*
X163628213Y-105510292D01*
X163739707Y-105621786D01*
X163739711Y-105621789D01*
X163870814Y-105709390D01*
X163870827Y-105709397D01*
X163944013Y-105739711D01*
X164016503Y-105769737D01*
X164171153Y-105800499D01*
X164171156Y-105800500D01*
X164171158Y-105800500D01*
X164328844Y-105800500D01*
X164328845Y-105800499D01*
X164483497Y-105769737D01*
X164629179Y-105709394D01*
X164760289Y-105621789D01*
X164871789Y-105510289D01*
X164959394Y-105379179D01*
X164962854Y-105370827D01*
X165017163Y-105239711D01*
X165019737Y-105233497D01*
X165050500Y-105078842D01*
X165050500Y-104921158D01*
X165050500Y-104921155D01*
X165050499Y-104921153D01*
X165026970Y-104802867D01*
X165019737Y-104766503D01*
X165017163Y-104760288D01*
X164959939Y-104622136D01*
X164950500Y-104574684D01*
X164950500Y-99931004D01*
X164923581Y-99795677D01*
X164923580Y-99795676D01*
X164923580Y-99795672D01*
X164918695Y-99783879D01*
X164870778Y-99668195D01*
X164870771Y-99668182D01*
X164794115Y-99553459D01*
X164794114Y-99553458D01*
X164696542Y-99455886D01*
X161546072Y-96305416D01*
X161519192Y-96265187D01*
X161459397Y-96120827D01*
X161459390Y-96120814D01*
X161371789Y-95989711D01*
X161371786Y-95989707D01*
X161260292Y-95878213D01*
X161260288Y-95878210D01*
X161129185Y-95790609D01*
X161129172Y-95790602D01*
X160983501Y-95730264D01*
X160983489Y-95730261D01*
X160828845Y-95699500D01*
X160828842Y-95699500D01*
X160671158Y-95699500D01*
X160671155Y-95699500D01*
X160516510Y-95730261D01*
X160516498Y-95730264D01*
X160370827Y-95790602D01*
X160370814Y-95790609D01*
X160239711Y-95878210D01*
X160239707Y-95878213D01*
X160128213Y-95989707D01*
X160128210Y-95989711D01*
X160040609Y-96120814D01*
X160040602Y-96120827D01*
X159980264Y-96266498D01*
X159980261Y-96266510D01*
X159949500Y-96421153D01*
X159949500Y-96578846D01*
X159980261Y-96733489D01*
X159980264Y-96733501D01*
X160025362Y-96842377D01*
X160032831Y-96911846D01*
X160001556Y-96974325D01*
X159958254Y-97004390D01*
X159870823Y-97040604D01*
X159870814Y-97040609D01*
X159739711Y-97128210D01*
X159739707Y-97128213D01*
X159628213Y-97239707D01*
X159628210Y-97239711D01*
X159540609Y-97370814D01*
X159540602Y-97370827D01*
X159480264Y-97516498D01*
X159480261Y-97516510D01*
X159449500Y-97671153D01*
X159449500Y-97828846D01*
X159480261Y-97983489D01*
X159480264Y-97983501D01*
X159540602Y-98129172D01*
X159540609Y-98129185D01*
X159628210Y-98260288D01*
X159628213Y-98260292D01*
X159739707Y-98371786D01*
X159739711Y-98371789D01*
X159870814Y-98459390D01*
X159870827Y-98459397D01*
X160016498Y-98519735D01*
X160016503Y-98519737D01*
X160081147Y-98532595D01*
X160171849Y-98550638D01*
X160233760Y-98583023D01*
X160235339Y-98584574D01*
X160613181Y-98962416D01*
X160646666Y-99023739D01*
X160649500Y-99050097D01*
X160649500Y-101962324D01*
X160629815Y-102029363D01*
X160577011Y-102075118D01*
X160507853Y-102085062D01*
X160501309Y-102083941D01*
X160453846Y-102074500D01*
X160453842Y-102074500D01*
X160296158Y-102074500D01*
X160296155Y-102074500D01*
X160141510Y-102105261D01*
X160141498Y-102105264D01*
X159995827Y-102165602D01*
X159995816Y-102165608D01*
X159923839Y-102213702D01*
X159857162Y-102234579D01*
X159807497Y-102225160D01*
X159672466Y-102169229D01*
X159672454Y-102169226D01*
X159517810Y-102138465D01*
X159517807Y-102138465D01*
X159360123Y-102138465D01*
X159360120Y-102138465D01*
X159205475Y-102169226D01*
X159205463Y-102169229D01*
X159059792Y-102229567D01*
X159059779Y-102229574D01*
X158928676Y-102317175D01*
X158928672Y-102317178D01*
X158817178Y-102428672D01*
X158817175Y-102428676D01*
X158729574Y-102559779D01*
X158729567Y-102559792D01*
X158669229Y-102705463D01*
X158669226Y-102705473D01*
X158638326Y-102860815D01*
X158605941Y-102922726D01*
X158604390Y-102924304D01*
X157565517Y-103963178D01*
X157504194Y-103996663D01*
X157477836Y-103999497D01*
X150595547Y-103999497D01*
X150528508Y-103979812D01*
X150482753Y-103927008D01*
X150481005Y-103922995D01*
X150459394Y-103870821D01*
X150459392Y-103870818D01*
X150459390Y-103870814D01*
X150371789Y-103739711D01*
X150371786Y-103739707D01*
X150260292Y-103628213D01*
X150260288Y-103628210D01*
X150129185Y-103540609D01*
X150129172Y-103540602D01*
X149983501Y-103480264D01*
X149983489Y-103480261D01*
X149828845Y-103449500D01*
X149828842Y-103449500D01*
X149671158Y-103449500D01*
X149671155Y-103449500D01*
X149516510Y-103480261D01*
X149516498Y-103480264D01*
X149370827Y-103540602D01*
X149370814Y-103540609D01*
X149239711Y-103628210D01*
X149239707Y-103628213D01*
X149128213Y-103739707D01*
X149128210Y-103739711D01*
X149040609Y-103870814D01*
X149040602Y-103870827D01*
X148980264Y-104016498D01*
X148980261Y-104016510D01*
X148949500Y-104171153D01*
X148949500Y-104328846D01*
X148980261Y-104483489D01*
X148980264Y-104483501D01*
X149040602Y-104629172D01*
X149040609Y-104629185D01*
X149128210Y-104760288D01*
X149128213Y-104760292D01*
X149239707Y-104871786D01*
X149277289Y-104896898D01*
X149322093Y-104950511D01*
X149330800Y-105019836D01*
X149300645Y-105082863D01*
X149277289Y-105103102D01*
X149239707Y-105128213D01*
X149128213Y-105239707D01*
X149128210Y-105239711D01*
X149040609Y-105370814D01*
X149040602Y-105370827D01*
X148980264Y-105516498D01*
X148980261Y-105516510D01*
X148949500Y-105671153D01*
X148949500Y-105828846D01*
X148980261Y-105983489D01*
X148982031Y-105989324D01*
X148979279Y-105990158D01*
X148985503Y-106047359D01*
X148954309Y-106109878D01*
X148894266Y-106145608D01*
X148863445Y-106149500D01*
X138550097Y-106149500D01*
X138483058Y-106129815D01*
X138462416Y-106113181D01*
X137541392Y-105192157D01*
X137507907Y-105130834D01*
X137512891Y-105061142D01*
X137554763Y-105005209D01*
X137620227Y-104980792D01*
X137685369Y-104993992D01*
X137695385Y-104999096D01*
X138013430Y-105130834D01*
X138094719Y-105164505D01*
X138179824Y-105192157D01*
X138505790Y-105298070D01*
X138926078Y-105398972D01*
X139352987Y-105466588D01*
X139783885Y-105500500D01*
X139783893Y-105500500D01*
X140216107Y-105500500D01*
X140216115Y-105500500D01*
X140647013Y-105466588D01*
X141073922Y-105398972D01*
X141494210Y-105298070D01*
X141905286Y-105164503D01*
X142304615Y-104999096D01*
X142689735Y-104802867D01*
X143058272Y-104577027D01*
X143407954Y-104322969D01*
X143736624Y-104042257D01*
X144042257Y-103736624D01*
X144322969Y-103407954D01*
X144577027Y-103058272D01*
X144802867Y-102689735D01*
X144999096Y-102304615D01*
X145164503Y-101905286D01*
X145298070Y-101494210D01*
X145398972Y-101073922D01*
X145466588Y-100647013D01*
X145500500Y-100216115D01*
X145500500Y-99783885D01*
X145466588Y-99352987D01*
X145398972Y-98926078D01*
X145298070Y-98505790D01*
X145189340Y-98171153D01*
X145164505Y-98094719D01*
X145118437Y-97983501D01*
X144999096Y-97695385D01*
X144802867Y-97310265D01*
X144759631Y-97239711D01*
X144600392Y-96979856D01*
X144590781Y-96964172D01*
X144577027Y-96941728D01*
X144562078Y-96921153D01*
X148449500Y-96921153D01*
X148449500Y-97078846D01*
X148480261Y-97233489D01*
X148480264Y-97233501D01*
X148540602Y-97379172D01*
X148540609Y-97379185D01*
X148628210Y-97510288D01*
X148628213Y-97510292D01*
X148739707Y-97621786D01*
X148739711Y-97621789D01*
X148870814Y-97709390D01*
X148870827Y-97709397D01*
X149008681Y-97766497D01*
X149016503Y-97769737D01*
X149123994Y-97791118D01*
X149160233Y-97798327D01*
X149222144Y-97830712D01*
X149256718Y-97891427D01*
X149252979Y-97961197D01*
X149250603Y-97967396D01*
X149230264Y-98016498D01*
X149230261Y-98016510D01*
X149199500Y-98171153D01*
X149199500Y-98328846D01*
X149230261Y-98483489D01*
X149230264Y-98483501D01*
X149290602Y-98629172D01*
X149290609Y-98629185D01*
X149378210Y-98760288D01*
X149378213Y-98760292D01*
X149489707Y-98871786D01*
X149489711Y-98871789D01*
X149620814Y-98959390D01*
X149620827Y-98959397D01*
X149715799Y-98998735D01*
X149766503Y-99019737D01*
X149919132Y-99050097D01*
X149921153Y-99050499D01*
X149921156Y-99050500D01*
X149921158Y-99050500D01*
X150078844Y-99050500D01*
X150078845Y-99050499D01*
X150233497Y-99019737D01*
X150379179Y-98959394D01*
X150510289Y-98871789D01*
X150621789Y-98760289D01*
X150709394Y-98629179D01*
X150709395Y-98629176D01*
X150709397Y-98629173D01*
X150741984Y-98550500D01*
X150769192Y-98484812D01*
X150773822Y-98477882D01*
X150774920Y-98472838D01*
X150796072Y-98444584D01*
X150902840Y-98337818D01*
X150964163Y-98304334D01*
X150990520Y-98301500D01*
X154681007Y-98301500D01*
X155175576Y-98301500D01*
X155242615Y-98321185D01*
X155288370Y-98373989D01*
X155290135Y-98378042D01*
X155290603Y-98379173D01*
X155290609Y-98379184D01*
X155378210Y-98510289D01*
X155489707Y-98621786D01*
X155489711Y-98621789D01*
X155620814Y-98709390D01*
X155620827Y-98709397D01*
X155761778Y-98767780D01*
X155766503Y-98769737D01*
X155902582Y-98796805D01*
X155921153Y-98800499D01*
X155921156Y-98800500D01*
X155921158Y-98800500D01*
X156078844Y-98800500D01*
X156078845Y-98800499D01*
X156233497Y-98769737D01*
X156379179Y-98709394D01*
X156510289Y-98621789D01*
X156621789Y-98510289D01*
X156709394Y-98379179D01*
X156769737Y-98233497D01*
X156800500Y-98078842D01*
X156800500Y-97921158D01*
X156800500Y-97921155D01*
X156800499Y-97921153D01*
X156769738Y-97766510D01*
X156769737Y-97766503D01*
X156756290Y-97734041D01*
X156748821Y-97664573D01*
X156780095Y-97602093D01*
X156783143Y-97598934D01*
X156871789Y-97510289D01*
X156959394Y-97379179D01*
X156962854Y-97370827D01*
X156987946Y-97310248D01*
X157019737Y-97233497D01*
X157050500Y-97078842D01*
X157050500Y-96921158D01*
X157050500Y-96921155D01*
X157050499Y-96921153D01*
X157019738Y-96766510D01*
X157019737Y-96766503D01*
X157006062Y-96733489D01*
X156959397Y-96620827D01*
X156959390Y-96620814D01*
X156871789Y-96489711D01*
X156871786Y-96489707D01*
X156760292Y-96378213D01*
X156760288Y-96378210D01*
X156629185Y-96290609D01*
X156629172Y-96290602D01*
X156483501Y-96230264D01*
X156483489Y-96230261D01*
X156328845Y-96199500D01*
X156328842Y-96199500D01*
X156171158Y-96199500D01*
X156171155Y-96199500D01*
X156016510Y-96230261D01*
X156016498Y-96230264D01*
X155872136Y-96290061D01*
X155824684Y-96299500D01*
X149675316Y-96299500D01*
X149627864Y-96290061D01*
X149483501Y-96230264D01*
X149483489Y-96230261D01*
X149328845Y-96199500D01*
X149328842Y-96199500D01*
X149171158Y-96199500D01*
X149171155Y-96199500D01*
X149016510Y-96230261D01*
X149016498Y-96230264D01*
X148870827Y-96290602D01*
X148870814Y-96290609D01*
X148739711Y-96378210D01*
X148739707Y-96378213D01*
X148628213Y-96489707D01*
X148628210Y-96489711D01*
X148540609Y-96620814D01*
X148540602Y-96620827D01*
X148480264Y-96766498D01*
X148480261Y-96766510D01*
X148449500Y-96921153D01*
X144562078Y-96921153D01*
X144322969Y-96592046D01*
X144322964Y-96592039D01*
X144042262Y-96263382D01*
X144042257Y-96263376D01*
X143736624Y-95957743D01*
X143643507Y-95878213D01*
X143407960Y-95677035D01*
X143407946Y-95677025D01*
X143058273Y-95422974D01*
X143058262Y-95422966D01*
X142689751Y-95197142D01*
X142689740Y-95197136D01*
X142689739Y-95197135D01*
X142689735Y-95197133D01*
X142304615Y-95000904D01*
X142176677Y-94947910D01*
X141905280Y-94835494D01*
X141612796Y-94740461D01*
X141494210Y-94701930D01*
X141073922Y-94601028D01*
X140647013Y-94533412D01*
X140216120Y-94499500D01*
X140216115Y-94499500D01*
X139783885Y-94499500D01*
X139783879Y-94499500D01*
X139352986Y-94533412D01*
X139352985Y-94533412D01*
X138926083Y-94601027D01*
X138926080Y-94601027D01*
X138926078Y-94601028D01*
X138775562Y-94637163D01*
X138505801Y-94701927D01*
X138505795Y-94701928D01*
X138505790Y-94701930D01*
X138505778Y-94701934D01*
X138094719Y-94835494D01*
X137695387Y-95000903D01*
X137310259Y-95197136D01*
X137310248Y-95197142D01*
X136941737Y-95422966D01*
X136941726Y-95422974D01*
X136592053Y-95677025D01*
X136592039Y-95677035D01*
X136263382Y-95957737D01*
X136263368Y-95957750D01*
X135957750Y-96263368D01*
X135957737Y-96263382D01*
X135677035Y-96592039D01*
X135677025Y-96592053D01*
X135422974Y-96941726D01*
X135422966Y-96941737D01*
X135197142Y-97310248D01*
X135197136Y-97310259D01*
X135000903Y-97695387D01*
X134835494Y-98094719D01*
X134701934Y-98505778D01*
X134701927Y-98505801D01*
X134668035Y-98646974D01*
X134630616Y-98802837D01*
X134601027Y-98926083D01*
X134533412Y-99352985D01*
X134533412Y-99352986D01*
X134499500Y-99783879D01*
X134499500Y-100216120D01*
X134505327Y-100290156D01*
X134533412Y-100647013D01*
X134601028Y-101073922D01*
X134701930Y-101494210D01*
X134701934Y-101494221D01*
X134835494Y-101905280D01*
X135000905Y-102304618D01*
X135006008Y-102314632D01*
X135018904Y-102383301D01*
X134992627Y-102448041D01*
X134935521Y-102488298D01*
X134865715Y-102491290D01*
X134807842Y-102458607D01*
X134334574Y-101985339D01*
X134301089Y-101924016D01*
X134300638Y-101921849D01*
X134269738Y-101766510D01*
X134269737Y-101766503D01*
X134269735Y-101766498D01*
X134209397Y-101620827D01*
X134209390Y-101620814D01*
X134121789Y-101489711D01*
X134121786Y-101489707D01*
X134010292Y-101378213D01*
X134010288Y-101378210D01*
X133879185Y-101290609D01*
X133879172Y-101290602D01*
X133733501Y-101230264D01*
X133733489Y-101230261D01*
X133578845Y-101199500D01*
X133578842Y-101199500D01*
X133421158Y-101199500D01*
X133421155Y-101199500D01*
X133266510Y-101230261D01*
X133266498Y-101230264D01*
X133120827Y-101290602D01*
X133120814Y-101290609D01*
X132989711Y-101378210D01*
X132989707Y-101378213D01*
X132878213Y-101489707D01*
X132878210Y-101489711D01*
X132790609Y-101620814D01*
X132790602Y-101620827D01*
X132730264Y-101766498D01*
X132730261Y-101766510D01*
X132699500Y-101921153D01*
X114300500Y-101921153D01*
X114300500Y-70764738D01*
X114300537Y-70761695D01*
X114317890Y-70054760D01*
X114318187Y-70048723D01*
X114370097Y-69345001D01*
X114370689Y-69339001D01*
X114457065Y-68638683D01*
X114457955Y-68632685D01*
X114578587Y-67937463D01*
X114579759Y-67931564D01*
X114734373Y-67243039D01*
X114735835Y-67237203D01*
X114924035Y-66557138D01*
X114925780Y-66551381D01*
X115147139Y-65881316D01*
X115149171Y-65875641D01*
X115403121Y-65217300D01*
X115405440Y-65211704D01*
X115691379Y-64566633D01*
X115693972Y-64561153D01*
X116011230Y-63930870D01*
X116014068Y-63925560D01*
X116361868Y-63311606D01*
X116364978Y-63306417D01*
X116742493Y-62710255D01*
X116745839Y-62705248D01*
X117152152Y-62128326D01*
X117155763Y-62123460D01*
X117589891Y-61567176D01*
X117593700Y-61562536D01*
X118054596Y-61028228D01*
X118058656Y-61023748D01*
X118546230Y-60511632D01*
X118548275Y-60509537D01*
X124759459Y-54298354D01*
X124761554Y-54296309D01*
X125273751Y-53808658D01*
X125278231Y-53804598D01*
X125812539Y-53343702D01*
X125817179Y-53339893D01*
X126373489Y-52905744D01*
X126378354Y-52902138D01*
X126955232Y-52495853D01*
X126960247Y-52492502D01*
X127556419Y-52114980D01*
X127561608Y-52111870D01*
X128175562Y-51764070D01*
X128180872Y-51761232D01*
X128811174Y-51443965D01*
X128816635Y-51441382D01*
X129461729Y-51155431D01*
X129467301Y-51153123D01*
X130125642Y-50899174D01*
X130131317Y-50897142D01*
X130801382Y-50675783D01*
X130807139Y-50674038D01*
X131487204Y-50485838D01*
X131493040Y-50484376D01*
X132181565Y-50329762D01*
X132187464Y-50328590D01*
X132882706Y-50207954D01*
X132888684Y-50207068D01*
X133589002Y-50120692D01*
X133595002Y-50120100D01*
X134298723Y-50068190D01*
X134304760Y-50067893D01*
X135011830Y-50050536D01*
X135014848Y-50050500D01*
X135079095Y-50050500D01*
X144920905Y-50050500D01*
X144985261Y-50050500D01*
X144988304Y-50050537D01*
G37*
%TD.AperFunction*%
%TD*%
M02*
