M48
; DRILL file {KiCad 9.0.6} date 2026-03-26T20:51:42+0000
; FORMAT={-:-/ absolute / metric / decimal}
; #@! TF.CreationDate,2026-03-26T20:51:42+00:00
; #@! TF.GenerationSoftware,Kicad,Pcbnew,9.0.6
; #@! TF.FileFunction,Plated,1,2,PTH
FMAT,2
METRIC
; #@! TA.AperFunction,Plated,PTH,ViaDrill
T1C0.300
; #@! TA.AperFunction,Plated,PTH,ViaDrill
T2C0.500
; #@! TA.AperFunction,Plated,PTH,ViaDrill
T3C1.000
%
G90
G05
T1
X125.25Y-85.25
X125.25Y-86.0
X125.25Y-86.75
X125.25Y-87.5
X125.25Y-112.5
X125.25Y-113.25
X125.25Y-114.0
X125.25Y-114.75
X126.0Y-85.25
X126.0Y-86.0
X126.0Y-114.0
X126.0Y-114.75
X126.75Y-85.25
X126.75Y-114.75
X127.5Y-85.25
X127.5Y-114.75
X133.5Y-102.0
X135.5Y-106.75
X143.0Y-105.5
X149.25Y-97.0
X149.75Y-104.25
X149.75Y-105.75
X150.0Y-98.25
X151.5Y-106.0
X152.5Y-85.25
X152.5Y-114.75
X153.25Y-85.25
X153.25Y-114.75
X154.0Y-85.25
X154.0Y-86.0
X154.0Y-106.0
X154.0Y-114.0
X154.0Y-114.75
X154.75Y-85.25
X154.75Y-86.0
X154.75Y-86.75
X154.75Y-87.5
X154.75Y-112.5
X154.75Y-113.25
X154.75Y-114.0
X154.75Y-114.75
X156.0Y-98.0
X156.25Y-97.0
X156.5Y-106.0
X158.25Y-106.25
X159.439Y-102.939
X159.75Y-96.75
X160.25Y-97.75
X160.375Y-102.875
X160.75Y-96.5
X161.25Y-103.0
X162.0Y-96.0
X162.0Y-101.5
X164.25Y-105.0
X164.75Y-98.0
T2
X117.5Y-67.5
X117.5Y-72.5
X117.5Y-77.5
X117.5Y-82.5
X117.5Y-87.5
X117.5Y-92.5
X117.5Y-97.5
X117.5Y-102.5
X117.5Y-107.5
X117.5Y-112.5
X117.5Y-117.5
X117.5Y-122.5
X117.5Y-127.5
X117.5Y-132.5
X117.5Y-137.5
X117.5Y-142.5
X117.5Y-147.5
X122.5Y-62.5
X122.5Y-67.5
X122.5Y-72.5
X122.5Y-77.5
X122.5Y-82.5
X122.5Y-87.5
X122.5Y-92.5
X122.5Y-97.5
X122.5Y-102.5
X122.5Y-107.5
X122.5Y-112.5
X122.5Y-117.5
X122.5Y-122.5
X122.5Y-127.5
X122.5Y-132.5
X122.5Y-137.5
X122.5Y-142.5
X122.5Y-147.5
X127.5Y-57.5
X127.5Y-62.5
X127.5Y-67.5
X127.5Y-72.5
X127.5Y-77.5
X127.5Y-82.5
X127.5Y-87.5
X127.5Y-92.5
X127.5Y-97.5
X127.5Y-102.5
X127.5Y-107.5
X127.5Y-112.5
X127.5Y-122.5
X127.5Y-127.5
X127.5Y-132.5
X127.5Y-142.5
X127.5Y-147.5
X132.5Y-52.5
X132.5Y-57.5
X132.5Y-62.5
X132.5Y-67.5
X132.5Y-72.5
X132.5Y-77.5
X132.5Y-82.5
X132.5Y-87.5
X132.5Y-112.5
X132.5Y-117.5
X132.5Y-122.5
X132.5Y-127.5
X132.5Y-132.5
X132.5Y-137.5
X132.5Y-142.5
X132.5Y-147.5
X137.5Y-52.5
X137.5Y-57.5
X137.5Y-62.5
X137.5Y-67.5
X137.5Y-72.5
X137.5Y-77.5
X137.5Y-82.5
X137.5Y-87.5
X137.5Y-112.5
X137.5Y-117.5
X137.5Y-122.5
X137.5Y-127.5
X137.5Y-132.5
X137.5Y-137.5
X137.5Y-142.5
X137.5Y-147.5
X142.5Y-52.5
X142.5Y-57.5
X142.5Y-62.5
X142.5Y-67.5
X142.5Y-72.5
X142.5Y-77.5
X142.5Y-82.5
X142.5Y-87.5
X142.5Y-112.5
X142.5Y-117.5
X142.5Y-122.5
X142.5Y-127.5
X142.5Y-132.5
X142.5Y-137.5
X142.5Y-142.5
X142.5Y-147.5
X147.5Y-52.5
X147.5Y-57.5
X147.5Y-62.5
X147.5Y-67.5
X147.5Y-72.5
X147.5Y-77.5
X147.5Y-82.5
X147.5Y-87.5
X147.5Y-112.5
X147.5Y-117.5
X147.5Y-122.5
X147.5Y-127.5
X147.5Y-132.5
X147.5Y-137.5
X147.5Y-142.5
X147.5Y-147.5
X152.5Y-57.5
X152.5Y-62.5
X152.5Y-67.5
X152.5Y-72.5
X152.5Y-77.5
X152.5Y-82.5
X152.5Y-87.5
X152.5Y-92.5
X152.5Y-102.5
X152.5Y-112.5
X152.5Y-117.5
X152.5Y-122.5
X152.5Y-127.5
X152.5Y-132.5
X152.5Y-147.5
X157.5Y-62.5
X157.5Y-67.5
X157.5Y-72.5
X157.5Y-77.5
X157.5Y-82.5
X157.5Y-87.5
X157.5Y-92.5
X157.5Y-112.5
X157.5Y-117.5
X157.5Y-122.5
X157.5Y-127.5
X157.5Y-132.5
X157.5Y-137.5
X157.5Y-142.5
X157.5Y-147.5
X162.5Y-67.5
X162.5Y-72.5
X162.5Y-77.5
X162.5Y-82.5
X162.5Y-87.5
X162.5Y-92.5
X162.5Y-107.5
X162.5Y-112.5
X162.5Y-117.5
X162.5Y-122.5
X162.5Y-127.5
X162.5Y-132.5
X162.5Y-142.5
X162.5Y-147.5
T3
X120.0Y-65.0
X120.0Y-70.0
X120.0Y-75.0
X120.0Y-80.0
X120.0Y-85.0
X120.0Y-90.0
X120.0Y-95.0
X120.0Y-100.0
X120.0Y-105.0
X120.0Y-110.0
X120.0Y-115.0
X120.0Y-120.0
X120.0Y-125.0
X120.0Y-130.0
X120.0Y-135.0
X120.0Y-140.0
X120.0Y-145.0
X125.0Y-60.0
X125.0Y-65.0
X125.0Y-70.0
X125.0Y-75.0
X125.0Y-80.0
X125.0Y-90.0
X125.0Y-95.0
X125.0Y-100.0
X125.0Y-105.0
X125.0Y-110.0
X125.0Y-120.0
X125.0Y-125.0
X125.0Y-130.0
X125.0Y-135.0
X125.0Y-145.0
X130.0Y-55.0
X130.0Y-60.0
X130.0Y-65.0
X130.0Y-70.0
X130.0Y-75.0
X130.0Y-80.0
X130.0Y-85.0
X130.0Y-90.0
X130.0Y-95.0
X130.0Y-100.0
X130.0Y-105.0
X130.0Y-110.0
X130.0Y-115.0
X130.0Y-120.0
X130.0Y-125.0
X130.0Y-130.0
X130.0Y-135.0
X130.0Y-140.0
X130.0Y-145.0
X135.0Y-55.0
X135.0Y-60.0
X135.0Y-65.0
X135.0Y-70.0
X135.0Y-75.0
X135.0Y-80.0
X135.0Y-85.0
X135.0Y-90.0
X135.0Y-95.0
X135.0Y-110.0
X135.0Y-115.0
X135.0Y-120.0
X135.0Y-125.0
X135.0Y-130.0
X135.0Y-135.0
X135.0Y-140.0
X135.0Y-145.0
X140.0Y-55.0
X140.0Y-60.0
X140.0Y-65.0
X140.0Y-70.0
X140.0Y-75.0
X140.0Y-80.0
X140.0Y-85.0
X140.0Y-90.0
X140.0Y-110.0
X140.0Y-115.0
X140.0Y-120.0
X140.0Y-125.0
X140.0Y-130.0
X140.0Y-135.0
X140.0Y-140.0
X140.0Y-145.0
X145.0Y-55.0
X145.0Y-60.0
X145.0Y-65.0
X145.0Y-70.0
X145.0Y-75.0
X145.0Y-80.0
X145.0Y-85.0
X145.0Y-90.0
X145.0Y-95.0
X145.0Y-105.0
X145.0Y-110.0
X145.0Y-115.0
X145.0Y-120.0
X145.0Y-125.0
X145.0Y-130.0
X145.0Y-135.0
X145.0Y-140.0
X145.0Y-145.0
X150.0Y-55.0
X150.0Y-60.0
X150.0Y-65.0
X150.0Y-70.0
X150.0Y-75.0
X150.0Y-80.0
X150.0Y-85.0
X150.0Y-90.0
X150.0Y-110.0
X150.0Y-115.0
X150.0Y-120.0
X150.0Y-125.0
X150.0Y-130.0
X150.0Y-135.0
X150.0Y-140.0
X150.0Y-145.0
X155.0Y-60.0
X155.0Y-65.0
X155.0Y-70.0
X155.0Y-75.0
X155.0Y-80.0
X155.0Y-90.0
X155.0Y-95.0
X155.0Y-110.0
X155.0Y-120.0
X155.0Y-125.0
X155.0Y-130.0
X155.0Y-135.0
X155.0Y-145.0
X160.0Y-65.0
X160.0Y-70.0
X160.0Y-75.0
X160.0Y-80.0
X160.0Y-85.0
X160.0Y-90.0
X160.0Y-110.0
X160.0Y-115.0
X160.0Y-120.0
X160.0Y-125.0
X160.0Y-130.0
X160.0Y-135.0
X160.0Y-145.0
M30
